<svg id="Layer_1" data-name="Layer 1" xmlns="http://www.w3.org/2000/svg" viewBox="0 0 400 400"><defs><style>.cls-1{fill:#fff;}.cls-2{fill:#c21f50;}</style></defs><path class="cls-1" d="M154.25,172.89c.42,8.44,5.79,13.6,11.71,18.77,16.14,14.1,21.32,34.67,14,53.82a47,47,0,0,1-45.28,30.17c-20.92-.4-36.77-12.3-44.54-33.11-1.43-3.84-.89-9.14-7.5-11.08-6.31,28.15-11.18,56.38-20,83.61a222.72,222.72,0,0,1-8,21.46c-5.08,11.48-13.9,17.88-26.76,15.89-12.28-1.89-17.88-10.29-20-22.2-9.78-53.7-10.7-107.35,0-161a180.55,180.55,0,0,0,3.92-32.07c.27-14.38,5.69-27.27,14.71-38.41,8.65-10.67,20.27-18.26,29-29.29,7.79-9.84,21-8.46,32.63-3.67l-8.75,5.31c5.42,1.57,7.05,2.14,8.73,2.51,39.8,8.87,58.89,31.57,60.57,71.93C149.07,154.92,149.28,164.39,154.25,172.89Zm-18.7,29.05c-13.87.3-8.37,12-10.77,19.38l-17.09,2.42c-1.47,5.69-2.52,10.8.36,15.68,14.52,1.53,14.94,1.45,17.77,15.11,1.32,6.37,6.35,5.25,10,7.06.94,2.25,2.43,3.6,5.06,3.42,13.94-1,28.22-16.88,29-32.35.81-16-12.43-33.49-26.78-35.61C138.91,196.42,136.08,197.19,135.55,201.94ZM78.24,169l-.38-.37c3.49,6.09-1.27,13.42,2.81,19.4,24.92,1,45.46-19.66,45.75-45.87.29-26.4-20.55-47.69-46.7-47-.42,5.58-.85,11.23-1.26,16.61-19.65,7-30.75,19.38-29.14,32C51.45,160.27,60.49,168.17,78.24,169Z"/><path class="cls-1" d="M323.09,70.47c-4.57-3.84-6.83-8.48-12.21-8.54-1.55,2.72-1.59,5.32,1.39,5.43,28.34,1,50.53,13.71,66,36.87,22.41,33.55,11.24,77.87-24.62,97.53-20.58,11.27-38,23.42-46.31,47.62-6.29,18.35-23.37,26.67-43.23,26.22-19.32-.44-33.61-9.82-41.69-27.13-8.57-18.38-7.37-37.85,7.7-51.11,18.46-16.23,21-36.33,22.7-58,2.51-32.12,21.08-55.45,49.51-63.74C308.63,73.74,315.72,75.53,323.09,70.47ZM263.64,264.39c22.06-2.72,36.5-16.49,35.65-34-.89-18.32-16.21-32-36.63-32.73-26,2.25-39.23,29.18-26,51.35C243.05,259.78,253.37,261.54,263.64,264.39Zm57-100.14c11.71.23,22.75-9.75,22.58-20.4-.2-12.68-9.8-22.82-21.75-23-12.69-.17-22.61,10.22-22.51,23.53C299.07,154.62,309.36,164,320.67,164.25Zm9.87-64.17c-1.15-4.86-2.5-9.39-7.57-12-9.94-5-31.19,3.22-34.6,13.59-1.08,3.29-.69,6.73,1.24,9,11.35,13.49,21.66-4.94,33.27-1.49C327.13,110.51,330.39,105.3,330.54,100.08Zm50.9,36.7c-4.75-6.5-6-16.39-14.16-22.12-3.95-2.78-8.47-3.27-12.5-.27s-5.29,6.93-2.17,11.64c2.9,4.38,2.06,9.49,2,14.33-.14,9.36,4.44,14.95,13.58,14.2S380.09,146.38,381.44,136.78ZM288.35,167.5c-1.85-6.84-3.4-13.82-12.11-14.33-9.23-.54-13.25,5.66-13.76,13.38s5.41,11,12.35,11.43C282.16,178.43,286.33,174.09,288.35,167.5Z"/><path class="cls-2" d="M390.12,178.59c6.79,3.24,6.67,7.58,6.94,11.5,3.34,47.18,5.27,94.28-4.28,141.14-2.4,11.78-8.42,19-19.65,20.9-12.07,2.08-20.82-3.69-26.13-14.59-10.11-20.77-14.58-43.26-19.82-65.51-.83-3.49-1.18-7.11-2.07-10.58-7.87-30.68-7.31-33.06,21-46.79C363.76,206.08,379.41,195.58,390.12,178.59Z"/><path class="cls-2" d="M154.25,172.89c-5-8.5-5.18-18-5.57-27.38C147,105.15,127.91,82.45,88.11,73.58c-1.68-.37-3.31-.94-8.73-2.51l8.75-5.31c31.05-8.3,62.13-16.16,94.44-18.38,13.47-.93,21,2,18.49,17.08-11.2.3-22.5,1.78-33.53.65-15.27-1.56-13.82,7.74-13.82,17.5,0,9.39-1,18,13.29,16.61,11.07-1.09,22.37,0,33.56.18,2.51,14.81-4.1,31.21,9.47,44.28,4.19,4-10.68,24-18.31,24.94C179.25,170.22,166.74,171.48,154.25,172.89Zm44.51-34.58c-7.32,1.07-7.6,5.57-6.93,10.16.59,4.07,2.95,6.31,7.62,4.68A21.52,21.52,0,0,0,198.76,138.31Z"/><path class="cls-1" d="M200.56,99.4c-11.19-.14-22.49-1.27-33.56-.18-14.27,1.4-13.28-7.22-13.29-16.61,0-9.76-1.45-19.06,13.82-17.5,11,1.13,22.33-.35,33.53-.65,12.54.33,25.07.79,37.6,1,16.18.23,8.52,12.51,9.75,19.82s1.23,14.44-10.23,13.83C225.68,98.41,213.11,99.23,200.56,99.4Z"/><path class="cls-2" d="M135.86,261.59c2.2-1.42,6.35-2.91,6.3-4.25-.45-12.66,4.48-18.85,17.84-18,3.35.23,4.13-4.08,4-7.43-.15-3.68-.49-8.36-4.88-8.25-12,.3-16.78-5.06-16.38-16.8.12-3.35-4.15-4.15-7.18-5,.53-4.75,3.36-5.52,7.59-4.89,14.35,2.12,27.59,19.58,26.78,35.61-.78,15.47-15.06,31.38-29,32.35C138.29,265.19,136.8,263.84,135.86,261.59Z"/><path class="cls-2" d="M263.64,264.39c-10.27-2.85-20.59-4.61-27-15.36-13.22-22.17,0-49.1,26-51.35,2,4.65-1,11,4.79,14.32-6.23,1.37-14.94-1.55-15.77,9.13-7.86,7-7.86,12.52,0,18.59-.56,10.68,8.1,9.17,14.34,10.86Q264.83,257.5,263.64,264.39Z"/><path class="cls-2" d="M330.54,100.08c-.15,5.22-3.41,10.43-7.66,9.16-11.61-3.45-21.92,15-33.27,1.49-1.93-2.29-2.32-5.73-1.24-9C291.78,91.34,313,83.08,323,88.12,328,90.69,329.39,95.22,330.54,100.08Z"/><path class="cls-2" d="M381.44,136.78c-1.35,9.6-4.25,17.05-13.27,17.78s-13.72-4.84-13.58-14.2c.08-4.84.92-10-2-14.33-3.12-4.71-1.9-8.61,2.17-11.64s8.55-2.51,12.5.27C375.42,120.39,376.69,130.28,381.44,136.78Z"/><path class="cls-1" d="M198.76,138.31a21.52,21.52,0,0,1,.69,14.84c-4.67,1.63-7-.61-7.62-4.68C191.16,143.88,191.44,139.38,198.76,138.31Z"/><path class="cls-1" d="M78.24,169c-1.75-1.26-3.34-3.12-5.3-3.67C61,162,54.52,154.14,54.33,142s7.12-18.46,17.6-24.39c11.2-6.32,20.72-3.76,27.18,3.33,9,9.86,12.27,22.58,4,35.82-6,9.7-14,14.07-25.27,11.91Z"/><path class="cls-1" d="M134.05,207.74c4.54,2.62,5.24,5.84,5.31,9.39-2.84,2-6.41,2.72-8.38.23C128.26,213.91,132.18,211.22,134.05,207.74Z"/><path class="cls-1" d="M120,227.42c2,3.06,1.24,5.93.31,8.91-4.19.42-6.86-1.18-8.87-4.45A8.2,8.2,0,0,1,120,227.42Z"/><path class="cls-1" d="M135.34,226.84c2.61-.23,4,1.21,4.56,3.51.69,2.93-.52,5.32-3.32,6-2.37.59-3.93-1.14-4.48-3.54C131.44,229.9,132.34,227.81,135.34,226.84Z"/><path class="cls-2" d="M158.17,232.86c-3,1.14-5.71,5.6-8.75.61-.65-1.08-.08-4.25.79-4.67C154.11,226.92,156.6,229,158.17,232.86Z"/><path class="cls-2" d="M136.2,256.16c-3.71-3.68-6.6-5.81-3.36-9,.92-.91,3.93-1.2,4.73-.45C140.77,249.73,137.7,252.08,136.2,256.16Z"/><path class="cls-1" d="M277,216.59c12.48,14.77,8.52,27-11,34-6.23-1.7-14.89-.19-14.33-10.87l-.21.23c7,5.71,14.44,9.31,22.58,2.65,8.82-7.21,5.18-15.77,1.64-24.09A11.42,11.42,0,0,0,277,216.59Z"/><path class="cls-1" d="M267.45,212c3.66.56,7.25,1.26,9.57,4.6a12.49,12.49,0,0,1-1.32,1.91c-8.51-3.44-16.62-2.94-24.24,2.42l.22.2C252.51,210.45,261.22,213.37,267.45,212Z"/><path class="cls-1" d="M251.69,239.72c-7.87-6.07-7.87-11.56,0-18.59l-.22-.2c-1.12,6.34-2.36,12.68,0,19Z"/><path class="cls-2" d="M251.48,240c-2.38-6.34-1.14-12.68,0-19,7.62-5.36,15.73-5.86,24.24-2.42,3.54,8.32,7.18,16.88-1.64,24.09C265.92,249.26,258.45,245.66,251.48,240Zm23-9.8c-.43-6-4-8.85-9.72-9-7.07-.13-9.31,4.59-9.36,10.62s4,9,9.56,8.94C271.55,240.72,274.39,236.51,274.45,230.15Z"/><path class="cls-1" d="M274.45,230.16c-.06,6.35-2.9,10.56-9.52,10.6-5.58,0-9.61-2.78-9.56-8.94s2.29-10.75,9.36-10.62C270.44,221.3,274,224.13,274.45,230.16Z"/></svg>