<svg id="Layer_1" data-name="Layer 1" xmlns="http://www.w3.org/2000/svg" viewBox="0 0 400 400"><defs><style>.cls-1{fill:#fff;}.cls-2{fill:#c21f50;}</style></defs><path class="cls-1" d="M200.85,114.78c60.69,0,121.38.25,182.07-.22,12.16-.09,16.71,3.68,16.58,16.12q-.76,69.24,0,138.48c.14,12.49-4.66,16.3-16.63,16.28q-182.73-.22-365.45.33c-11.69,0-17-3.22-16.9-16q.81-69.23,0-138.48c-.15-12.75,4-17.16,17-17,61.12.54,122.24.24,183.37.24ZM216,195c-8.14-.79-16.75-4.34-25,3.84,8.12,5.84,15.75,3.45,23,3.48a14.7,14.7,0,0,0,3.81.37c6.41-1.09,13.68,2.82,19.17-3.16.58-.63.44-3-.18-3.46C230.19,191.44,223.07,193.6,216,195Zm-60.72,7c1.68.14,3.52.79,5,.32,6.11-1.89,17.87,4.55,17.46-4.67-.33-7.48-12-2.56-18.74-3-8.67-.49-17.74-3.41-27.28,3.28C140.32,204.87,148.05,201.94,155.31,202.07ZM58.55,226.6c-.17,3.39-.37,6.77-.51,10.16-.31,8-.79,15.05,11.22,14.93,10.35-.1,16.52-1.83,14.76-13.87-1-7,1.23-11.66,9.67-10.4C103.48,228.88,108,226,108,214.64c0-12.18-6.14-12.91-15.07-12.27-3.38.24-6.78,0-10.18,0-.4-3.8-1.44-7.67-1.07-11.4.82-8.21-2.06-11.62-10.62-11.56s-11.63,3.63-10.52,11.69C62,201.84,57.07,206,46.74,204.63c-8.13-1.09-11.19,1.86-11.26,10.55-.07,9.24,4.05,10.77,11.68,10.26C50.92,225.18,54.75,226.17,58.55,226.6Zm69.24,24.47c23.88,13.41,48.57,10.56,72.89,10.76,10.26.09,20.52-.12,30.78.11,4.13.1,9.57-.19,10,5.58.56,7.74,5.48,7.12,10.74,7.11,41.89-.05,83.78-.31,125.67.15,11.39.12,15.15-4.62,15.07-15.24-.26-35.05-.42-70.1,0-105.14.13-12-5.1-15.49-16.36-15.32-29.91.48-59.84.11-89.76.12a45.52,45.52,0,0,0-44.7,37.61c-.93,5.36-3.56,7.09-8.53,7.37-3.3.18-7.43-1.54-10,2.43,2.9,3.11,6,2,8.82,1.86,6.29-.3,9.68,2,9.8,8.66.11,6.19-.94,12.2-8.46,11.34-20.19-2.3-39.1,6.15-58.94,6.18-15.6,0-31.21,0-47.32,0,0,12.7,0,23.35,0,34C127.46,250.29,127.92,251.91,127.79,251.07Z"/><path class="cls-2" d="M66.11,219.61l-7.56,7c-3.8-.43-7.63-1.42-11.39-1.16-7.63.51-11.75-1-11.68-10.26.07-8.69,3.13-11.64,11.26-10.55C57.07,206,62,201.84,60.55,191.12c-1.11-8.06,2-11.63,10.52-11.69S82.51,182.78,81.69,191c-.37,3.73.67,7.6,1.07,11.4a5.51,5.51,0,0,1-7,2.43c-.24-2.46-.85-4.95-.65-7.36.28-3.32,1.93-6.79-2-9.08a4.48,4.48,0,0,0-5.8.58c-3.42,3.4-1,7.23-.51,10.81.69,5.61,6.29,2.77,9.09,4.87l.12,4.89C67.56,207.75,62.67,209.56,66.11,219.61Zm-6.93-5.39c-4.94-1.27-9-8.11-14.58-2.12-1.59,1.71-1.7,4.31.24,5.68C50.24,221.61,54.8,219,59.18,214.22Z"/><path class="cls-2" d="M155.31,202.07c-7.26-.13-15,2.8-23.54-4,9.54-6.69,18.61-3.77,27.27-3.28C157.8,197.19,156.55,199.63,155.31,202.07Z"/><path class="cls-2" d="M214,202.36c-7.25,0-14.88,2.36-23-3.48,8.24-8.18,16.85-4.63,25-3.84Q215,198.7,214,202.36Z"/><path class="cls-1" d="M183.77,251.42c-14.92,0-29.84-.34-44.74.15-7.44.24-9.51-2.53-9.34-9.62.67-29.06-3.19-23.91,23.09-24.17,24.74-.25,49.51.22,74.23-.64,10.89-.37,14.77,3.34,13.32,13.82a37.22,37.22,0,0,0,0,10.22c1.31,9.4-3.24,11.72-11.78,11.45-14.92-.47-29.86-.13-44.79-.13Zm24.9-21.33V230c-2.55,0-5.11-.08-7.65,0-3.69.16-8.46-.79-8.5,4.92,0,5.49,4.56,5.25,8.36,5.32,5.53.11,11.06,0,16.58-.06,3.32-.07,5.8-1.39,5.94-5.17.15-4-2.45-4.95-5.8-4.95Zm-47.65,10c2.12,0,4.25,0,6.37,0,3.77-.06,8.64.75,9-4.53.4-5.49-4.64-5.05-8.27-5.26-4.67-.26-9.36-.16-14-.08-3.51.06-7.35.3-7.08,5.13.26,4.67,4.18,4.62,7.61,4.76C156.76,240.23,158.89,240.15,161,240.13Z"/><path class="cls-1" d="M355.13,212.49v41.57H312.46V212.49Zm-31.85,31.33c9.31,4.68,16.16,4.78,21.83-2.77,3.39-4.51,4.89-9.75.28-13.82-4.8-4.24-7.63,1.63-10.51,4C331,234.44,328,238.61,323.28,243.82Z"/><path class="cls-1" d="M303.58,212.65c.28,2.58.56,4.22.62,5.86,1.32,39.32-1.54,41.71-42.92,35.12v-41Zm-10.64,12.63c-8.71,3.86-14,10.41-18.73,18.49,7.19,5.24,13.27,4.31,18.61-1.23C297.9,237.27,298.31,231.53,292.94,225.28Z"/><path class="cls-2" d="M313.25,157.91q16.58-.19,33.14-.4c4.58,0,8.55.53,8.63,6.63.07,6.27-3.45,8.07-8.91,8q-21.64-.42-43.28-.79C306.16,166.73,311.69,163.87,313.25,157.91Z"/><path class="cls-1" d="M313.25,157.91c-1.56,6-7.09,8.82-10.42,13.4-10.2.17-20.43-.07-30.6.64-9.6.68-13.88-2.28-10-14Z"/><path class="cls-1" d="M66.11,219.61c-3.44-10.05,1.45-11.86,10-10.08C78.05,218.12,76.58,223.31,66.11,219.61Z"/><path class="cls-1" d="M81.31,213.93c3.93-4,8.88-3,14.27-4.41C89.33,220,88.73,220.17,81.31,213.93Z"/><path class="cls-1" d="M67.12,239.48c-.11-4.92-2.84-10.27,2.49-13.47.76-.46,3.7.82,4,1.82C75.52,233.48,72.72,237.15,67.12,239.48Z"/><path class="cls-1" d="M76,204.64c-2.8-2.1-8.4.74-9.09-4.87-.45-3.58-2.91-7.41.51-10.81a4.48,4.48,0,0,1,5.8-.58c3.89,2.29,2.24,5.76,2,9.08-.2,2.41.41,4.9.65,7.36C75.78,204.82,76,204.64,76,204.64Z"/><path class="cls-1" d="M59.18,214.22c-4.38,4.73-8.94,7.39-14.34,3.56-1.94-1.37-1.83-4-.24-5.68C50.18,206.11,54.24,213,59.18,214.22Z"/><path class="cls-2" d="M161,240.14c-2.13,0-4.26.09-6.38,0-3.43-.14-7.35-.09-7.61-4.76-.27-4.83,3.57-5.07,7.08-5.13,4.67-.08,9.36-.18,14,.08,3.63.21,8.67-.23,8.27,5.26-.38,5.28-5.25,4.47-9,4.53C165.27,240.16,163.14,240.13,161,240.14Z"/><path class="cls-2" d="M323.28,243.82c4.71-5.21,7.75-9.38,11.6-12.58,2.88-2.38,5.71-8.25,10.51-4,4.61,4.07,3.11,9.31-.28,13.82C339.44,248.6,332.59,248.5,323.28,243.82Z"/><path class="cls-2" d="M292.94,225.28c5.37,6.25,5,12-.12,17.26-5.34,5.54-11.42,6.47-18.61,1.23C278.92,235.69,284.23,229.14,292.94,225.28Z"/></svg>