<svg id="Layer_1" data-name="Layer 1" xmlns="http://www.w3.org/2000/svg" viewBox="0 0 400 400"><defs><style>.cls-1{fill:#fff;}.cls-2{fill:#c21f50;}</style></defs><path class="cls-1" d="M356.44,126.82c8.42,7.92,19.59,13,24.87,24.17-6,5.88-10.35,4.21-16-1.57-24.13-24.64-63-28-92.63-8.59-27.68,18.11-42.38,56.54-28.15,85.56,9.19,18.73,12.89,32-7.1,43.88-30.43.29-60.86.66-91.29.8a26.1,26.1,0,0,0-14.28,3.74C91.78,299,40.57,288.16,15.29,250.39c-26-38.82-17-89.62,20.93-118.08,2.28-1.71,5.05-3.29,6.42-5.62,6.54-11.15,16.57-14.21,28.67-13.69,62.45,2.67,124.93,4.44,187.45,3.54,4.7-.07,9.4-.41,14.08-.63C301,117.51,329.93,112.71,356.44,126.82ZM155.17,243.28c-2.15-.23-4.38-.93-6.43-.58-5.05.85-14-3.64-13.92,4.77.07,7.48,8.57,2.76,13.26,3.76,2.85.14,5.92,1.05,8.49.27,4.7-1.42,14.06,4.57,13.45-4.45C169.44,238.65,160.61,243.36,155.17,243.28Zm45.32,7.84c5,.18,10.11.49,15.17.51,3.14,0,7,.6,6.65-4.6-.27-4.82-3.89-4.54-7.11-4.52a68.37,68.37,0,0,0-7.51.81c-2.49-.28-5.1-1.17-7.45-.71-4.75.92-13.38-3.07-13.37,4.14C186.88,255.53,195.56,250.29,200.49,251.12ZM187.44,164.5c14.38.19,28.76.41,43.14.56,2.86,0,6.07.29,6.12-4.06s-2.94-4.4-5.93-4.27c-12.91.54-25.91-1.46-38.74,1.28-12.76-3.32-25.76-1.2-38.64-1.65-3-.1-7.22-.21-6.9,4.62s4.52,3.88,7.51,3.88C165.15,164.88,176.3,164.64,187.44,164.5ZM179.89,152c16.26.13,32.53.1,48.78.46,7.14.16,7.63-4.25,6.93-9.24-.65-4.59,3.29-12.14-6.12-12-10.08.11-20.24-1.32-30.23,1.19-21.44-4.68-36.75,1.44-46.31,18.73C162,153.18,171,152,179.89,152ZM99.42,191c-.36-4.31-1.36-8.69-1-12.93.86-9.06-2.78-12-11.76-12.17-9.28-.18-12.81,3.48-11.79,12.08,1.17,9.8-2.41,14.13-12.62,12.93-6.48-.76-12.41-.39-11.8,9.24.47,7.51-.79,15.17,10.73,13.71,1.93-.25,4.37-.63,6.46,2.39L49.82,232.94c13.77,14.85,29.58,19.81,47.93,15.58,18.57-4.28,30.88-16.53,35.06-34.63,3.33-14.43,2.34-29.36-9.94-41.2-7.89,5.17-14.72,10.36-20.33,17.05Zm118.93,17a5,5,0,0,0-2.79-5.38c-2.64-1.47-4.87-.38-6.88,1.41-5.92,5.29-11.9,10.51-17.7,15.92-2.59,2.42-3.51,5.57-1.68,8.88,1.63,2.94,4.4,3.54,7.52,2.84C201.38,230.64,217.88,212.47,218.35,208ZM151,232c5.16-.27,23.18-19.21,22.87-24.59s-4.2-7.12-8.22-4.08c-6.85,5.18-13.08,11.2-19.42,17-2.36,2.17-2.56,5.21-1.28,8A5.61,5.61,0,0,0,151,232Z"/><path class="cls-2" d="M237.42,270.27c20-11.89,16.29-25.15,7.1-43.88-14.23-29,.47-67.45,28.15-85.56,29.61-19.37,68.5-16.05,92.63,8.59,5.66,5.78,10,7.45,16,1.57,22.91,22.82,24.42,70.92,3.15,100.26-27.2,37.51-75.64,47.92-115.42,24C258.72,269.1,247.69,273.4,237.42,270.27Zm22.34-20.69c.18,1.95.08,2.42.27,2.65,22.07,27.3,67.75,31.81,97.5,9.65,30.3-22.56,39.51-69.13,19.66-98-4.07-5.92-7.37-5.06-12.14-1.08-23.33,19.45-46.83,38.7-70.28,58C282.87,230.63,271,240.39,259.76,249.58Zm68.33-64.07c7.57-10.13,7.1-17.41.9-24.64-6.76-7.88-15.53-9.26-23.28-3.52-15.63,11.57-30.68,24-45.18,37-6.62,5.91-6.67,14.15-1,21.59s13.31,11.38,21.74,6.45c15.12-8.83,27.6-21.19,40.77-33.22-7.33.51-14.22,1.64-19.5-6.37,8.22-5.43,14.28-13,23-17.13C331.51,170.62,328.62,176.54,328.09,185.51Z"/><path class="cls-2" d="M356.44,126.82c-26.51-14.11-55.48-9.31-83.6-10.91,25.81-5,51.57-6.15,77,1.6C353.52,118.62,355.87,122.55,356.44,126.82Z"/><path class="cls-2" d="M102.54,189.74c5.61-6.69,12.44-11.88,20.33-17.05,12.28,11.84,13.27,26.77,9.94,41.2-4.18,18.1-16.49,30.35-35.06,34.63-18.35,4.23-34.16-.73-47.93-15.58l17.86-16.69c-2.09-3-4.53-2.64-6.46-2.39-11.52,1.46-10.26-6.2-10.73-13.71-.61-9.63,5.32-10,11.8-9.24,10.21,1.2,13.79-3.13,12.62-12.93-1-8.6,2.51-12.26,11.79-12.08,9,.18,12.62,3.11,11.76,12.17-.4,4.24.6,8.62,1,12.93L92,197.4c-8.85-3.05-13.84-1.91-9.8,9-9.06,4-7.22,11.74-7.1,19.38.13,8.08,1.58,12.66,11.4,12.55,10-.12,12.91-4.4,11.76-13.24-1.2-9.26,3.09-12.5,11.87-11.36,7.82,1,12.12-1.41,11.87-10.48-.21-7.84-.77-13.77-10.94-12.52C108.33,191.1,105.4,190.11,102.54,189.74ZM56.15,202.41c3.37,4.23,6.83,6.16,11.67,5.53,1.33-3.91,1.71-7.57-.65-11.26C62.87,197.06,59.56,198.87,56.15,202.41Zm30.51-29.13c-4.53,2.4-6.21,6.06-5.64,11.07,4,1.24,7.36,2.44,11.09-1.35C90.93,179.79,91.06,175.75,86.66,173.28Z"/><path class="cls-2" d="M199.25,132.35c-3.64,9.3-15,11-19.35,19.62-9,0-18,1.21-27-.89C162.5,133.79,177.81,127.67,199.25,132.35Z"/><path class="cls-2" d="M187.44,164.5c-11.14.14-22.29.38-33.44.36-3,0-7.19.87-7.51-3.88s3.89-4.72,6.9-4.62c12.88.45,25.88-1.67,38.62,1.65C190.48,160.17,189,162.34,187.44,164.5Z"/><path class="cls-2" d="M200.49,251.12c-4.93-.83-13.61,4.41-13.62-4.37,0-7.21,8.62-3.22,13.37-4.14,2.35-.46,5,.43,7.45.71Z"/><path class="cls-2" d="M148.08,251.23c-4.69-1-13.19,3.72-13.26-3.76-.08-8.41,8.87-3.92,13.92-4.77,2-.35,4.28.35,6.44.58Z"/><path class="cls-1" d="M328.09,185.51c.53-9,3.42-14.89-2.56-19.88-8.75,4.08-14.81,11.7-23,17.13,5.28,8,12.17,6.88,19.5,6.37-13.17,12-25.65,24.39-40.77,33.22-8.43,4.93-16.1,1-21.74-6.45s-5.58-15.68,1-21.59c14.5-13,29.55-25.39,45.18-37,7.75-5.74,16.52-4.36,23.28,3.52C335.19,168.1,335.66,175.38,328.09,185.51Zm-63.18,29.2c7.43,6.56,14.28,6,20.34,1.15,5.89-4.72,7.06-11.19,2.64-19.22C279.32,201.32,272.68,207.55,264.91,214.71Z"/><path class="cls-1" d="M92,197.4c2.27,9,.92,14.11-9.8,9C78.2,195.49,83.19,194.35,92,197.4Z"/><path class="cls-1" d="M56.15,202.41c3.41-3.54,6.72-5.35,11-5.73,2.36,3.69,2,7.35.65,11.26C63,208.57,59.52,206.64,56.15,202.41Z"/><path class="cls-1" d="M86.66,173.28c4.4,2.47,4.27,6.51,5.45,9.72-3.73,3.79-7.14,2.59-11.09,1.35C80.45,179.34,82.13,175.68,86.66,173.28Z"/><path class="cls-1" d="M113.47,201.34a12.75,12.75,0,0,1-8.34,6.07c-2.73-3.31-1.75-6.94-1.14-10.63C108.21,195.91,110.91,197.65,113.47,201.34Z"/><path class="cls-1" d="M92.06,221.46c-7.74,8.28-7.74,8.28-12.37.15C85.36,219.74,85.36,219.74,92.06,221.46Z"/><path class="cls-1" d="M299.93,224.44c13.6-14,29.27-25.49,44.76-37.12,8.69-6.53,19.1-3.18,25.07,6.22,5.75,9.06,3.16,18.1-7.33,25.49,1.26-8.05,10.62-15.76,1-24.26-6-7.13-13-7.23-20-2.14-7.88,5.75-7.38,13.14-2.67,20.8,5.36,9.64,14.57,3.61,21.87,5.38l-36.45,30.13-1.77-2.78c4.47-6.16,6.79-12.5,1.53-19.43-7.59-11-16.1-7.52-24.76-1.56A4.32,4.32,0,0,0,299.93,224.44Z"/><path class="cls-1" d="M326.24,248.94c-8.36,7.63-17,8.71-25.56.56-8.36-8-8.42-15.76-.74-25.06a4.39,4.39,0,0,1,1.3.73c-2.54,6.94-4.78,13.84,2.25,19.68,6.54,7.72,13.69,5.58,21,1.31Z"/><path class="cls-2" d="M264.91,214.71c7.77-7.16,14.41-13.39,23-18.07,4.42,8,3.25,14.5-2.64,19.22C279.19,220.71,272.34,221.27,264.91,214.71Z"/><path class="cls-2" d="M303.49,244.85c-7-5.84-4.79-12.74-2.25-19.68,8.66-6,17.17-9.43,24.76,1.56Z"/><path class="cls-2" d="M363.45,194.77a142.59,142.59,0,0,1-22.63,18.66c-4.71-7.66-5.21-15.05,2.67-20.8C350.47,187.54,357.49,187.64,363.45,194.77Z"/></svg>