<svg id="Layer_1" data-name="Layer 1" xmlns="http://www.w3.org/2000/svg" viewBox="0 0 400 400"><defs><style>.cls-1{fill:#fff;}.cls-2{fill:#c21f50;}</style></defs><path class="cls-1" d="M280.2,116.34c1.93-6.77-3.38-5-6.4-5q-76.11-.17-152-.08c3.07,19.08-18.27,22.4-22.8,36.27,20,6.3,20,6.3,18.53,25-1.36,17-15.84,3.73-23.48,11.81,1.41,12.81-.62,23.59-21.3,21.72-16-1.46-7.64-13.41-12.52-20L35.34,214.73c10.41,12.87,24.66,17.5,58.88,17,3.31,10.66,4,22.67,12.51,31.43,3.62,3.73,3.6,3.76,7-.22l0,.05c-5.64.39-3.55,3.27-1.42,5.35,5.73,5.59,12.87,8.67,21.71,11.32-13.2,1.25-21.85-5.56-31.44-13.7C95.57,276.89,88.77,287,82.36,297.42c-11.73,19-30.48,27-50.69,21.35C12,313.28-.88,295.88.62,273.51c2.54-37.92,5.09-75.91,9.94-113.58,6.36-49.39,53-74.07,97.72-52.35,7.43,3.61,11-2.24,16.81-1.71,24.91,2.29,50.16,1.88,74.94,2.39,24.49.5,49.85-1.09,74.81-2.11,4.3-.18,9-1.24,12.33,1.73,1,6.64-8.5,2-7.07,8.21ZM91.09,171.26c3,9.84,12.45,6.23,15.36,3.78,5.11-4.3,5.22-11.95-.26-17.89C90,154.5,89,155.47,91.09,171.26Zm-5.23,8c-16.22-3.8-19.68-1.06-16.65,13.19,2.35,10.56,11.73,6.31,15.26,4.39C91.48,193.07,89.38,185.57,85.86,179.29ZM66.6,176.55c7.64-7.47,15.48-14.75,22.86-22.47C96.2,147,94.77,127,87.74,125.15c-18.49-4.91-25.37.12-25.65,18.73,0,1.56-.34,3.1-.68,6-5.24,0-10.06-.13-14.87,0-3.15.12-7.82-.72-8.32,3.32-1.11,8.8-4.94,20.48,1.89,25.71,6.29,4.81,17.76,5.64,26-1.71Z"/><path class="cls-2" d="M265.63,199.16c17.17,11.91,28.17-.6,39.76-12.41,1.25,3.57,2,5,2.22,6.48,1.93,13.36,14.74,19.9,27.26,14,6.17-2.9,4.28-8.49,4.24-13-.06-6.92,1.69-11.59,9.52-10.9,10.28.91,16.07-1.14,15.74-13.82-.29-11.68-1.61-19.6-15.76-17.88-1.05.13-2.22-.72-5.14-1.76a122.22,122.22,0,0,1,24.58-25.57c5.8-4.54,8.55,2.14,11.32,5.74,11.29,14.68,10.91,32.62,12.63,49.64q4.78,47.43,7.42,95.05c1.2,22.06-10.63,38-30.43,44-19.17,5.8-37.8-1.83-49.77-20.38-2.46-3.79-4.27-8.36-7.56-11.21-17.94-15.51-7-31.69-1.42-47.62,1.83-5.19,6.94-3,10.85-3,22.14.24,40.73-7.22,54.16-25.63-6.06,4.65-11.74,10-18.27,13.82-15.15,9-31.44,11.88-48.75,6.92-5.89-1.69-11-2.87-12.49,6.28-3.35,20.31-16,31-34,30.1-17.23-.9-30.76-13.51-32.23-30.05-1.77-19.94,7.66-32.64,27.86-37.55,1.6-.39,3.17-.89,4.75-1.34Zm17.59,19.05c-6.79-9.74-16.28-12-27.19-9.32-11.4,2.74-17.37,10.89-18.78,21.91-1.19,9.36.79,18.1,10.56,22.79,11.84,8.67,22.87,8.46,32.93-.62C291.5,243.26,292.28,232.38,283.22,218.21Z"/><path class="cls-1" d="M113.73,263c4.22-5.19-1.92-6.9-3.66-9.65-8-12.55-7.28-25.57-.43-37.47,6.53-11.37,17.73-17.13,31.32-15.69,14.36,1.53,24.86,9,29.26,23,4.31,13.68,1.38,26.15-9.38,36.1-10.34,9.57-25.21,11.42-38,5.07-1.84-.91-3.46-2.26-5.3-3.15s-4-1.79-3.79,1.86Zm42.92-44.29c-10.4-6.94-20.71-5.4-29.34,2.36-10.22,9.2-10.29,20.78-4.23,32.64,11.67,9.47,26.17,8.23,35.35-3C167.09,240,166.35,226.72,156.65,218.67Z"/><path class="cls-1" d="M285.31,182.4c-6.36-25.29-3.78-29.17,20.68-30.94,2.7-2.7,1.94-6.28,1.49-9.3-1.74-11.7,3.4-16.07,14.5-14.26,5.66.93,14.72-3.54,16.19,4,1.56,8.06,4.59,18-4.11,25.39-5,4.25-10.05,8.8-13.86,14.09C311.12,184,299.13,185.71,285.31,182.4Zm17.17-6.25-.32.2c9.13-4.23,6.84-10.11,2.36-16.3-6.82-4.07-11.28-.44-13.41,5.39-2.25,6.14,1.55,10,7.55,11.56Zm22.84-24.61c10.93-3,11.2-8.81,4.17-16.42-7.09-5.82-11-.4-12.75,4.91C314.66,146.41,317.84,151.13,325.32,151.54Z"/><path class="cls-1" d="M199.59,122.78c8.22,0,16.45.14,24.67,0,5.54-.12,9.59.53,9.63,7.72,0,6.56-2.85,8.74-8.91,8.73-17.69,0-35.38,0-53.06.34-6.43.14-8.8-2.29-8.67-8.66s3-8.62,9.19-8.41c9,.31,18.09.08,27.14.08Z"/><path class="cls-1" d="M265.63,199.16l-3.47-.11c-2.5-9.65-5.27-15.3-17.28-8-18.24,11.05-29.06,25.3-27.51,47,1.41,19.62,13.52,33.18,35.45,41.1-20.9-1.45-32.76-13-40.56-39.36-.07-2-.15-4-.22-6.06,3.68-26.47,14-38.32,38.82-44.12,5.84-1.37,6.76-4.79,5.62-10.06-3.35-15.59,1.24-29.8,8-43.56C253.93,157.25,255.48,178.28,265.63,199.16Z"/><path class="cls-1" d="M101.05,86.65H61.71C70.7,77.09,90.46,76.88,101.05,86.65Z"/><path class="cls-2" d="M343.11,86.52h-39C315.2,77.48,332.33,77.54,343.11,86.52Z"/><path class="cls-2" d="M212,233.74c.07,2,.15,4,.22,6.06-9.08-.46-18.51,2.76-29-2.61C193.55,231.64,203,234.56,212,233.74Z"/><path class="cls-2" d="M359.44,168.19c-.89,6.57-5.06,9.52-11,9.44-6.32-.09-9.68-3.69-9.4-10.32s4.36-9.8,10.38-9.52S358.66,162.31,359.44,168.19Z"/><path class="cls-2" d="M324.5,203.41c-6.94-.46-10.78-3.22-10.94-9.84s3.25-9.74,9.72-9.82,10.26,3.28,10.51,9.43C334,199.58,329.54,202.38,324.5,203.41Z"/><path class="cls-1" d="M165.75,177.36c-2.77.13-9.47,2.21-9.37-8.18.1-10.12,6.68-8.3,12.72-8.33S182,159.34,182,169.29C182,179.52,174.89,177.22,165.75,177.36Zm3.41-14.13c-3.7.18-8.19-.38-8.32,5.78-.12,5.82,3.76,6.65,8.17,6.35,4-.27,8.79-.23,9-5.94S173.76,163.39,169.16,163.23Z"/><path class="cls-1" d="M210.09,205.78H187.21c-2-3.92-3.35-8.45.9-10.65,5.9-3.06,12.9-1.76,19.12-.63C212.88,195.53,210.39,200.85,210.09,205.78Zm-11.54-1.1c3.58-.75,9.34,1.18,9.21-4.9-.1-4.66-5-4.66-8.64-4.55-3.83.12-9.35-.79-9.27,5C189.91,205.35,195.13,204,198.55,204.68Z"/><path class="cls-1" d="M230.21,161.74c-10.56,2.81-5.18,10-7,15.51C217.35,165.52,218.64,161.54,230.21,161.74Z"/><path class="cls-1" d="M280.1,116.09l-6.33,6.78c.66-1.58,6.42-1.11,6.44-6.51Z"/><path class="cls-2" d="M66.13,177.19,47.4,175.34l17.06-15.47c3.25,5.23,1.08,11.16,2.14,16.68Z"/><path class="cls-2" d="M106.19,157.15c-3.84,6-7.87,11.76-15.1,14.11C89,155.47,90,154.5,106.19,157.15Z"/><path class="cls-2" d="M85.86,179.29c-5.62,4.31-9,11.48-16.65,13.19C66.18,178.23,69.64,175.49,85.86,179.29Z"/><path class="cls-1" d="M247.81,253.59c-9.77-4.69-11.75-13.43-10.56-22.79,1.41-11,7.38-19.17,18.78-21.91,10.91-2.63,20.4-.42,27.19,9.32C280.43,248.1,275.41,253.12,247.81,253.59Z"/><path class="cls-2" d="M123.08,253.67c-6.06-11.86-6-23.44,4.23-32.64,8.63-7.76,18.94-9.3,29.34-2.36C158.64,244.89,151,252.91,123.08,253.67Z"/><path class="cls-2" d="M298.66,177c-6-1.6-9.8-5.42-7.55-11.56,2.13-5.83,6.59-9.46,13.41-5.39.08,5.56,1.5,11.31-2.36,16.3l.32-.2Z"/><path class="cls-2" d="M325.32,151.54c-7.48-.41-10.66-5.13-8.58-11.51,1.73-5.31,5.66-10.73,12.75-4.91C330,141.07,331.24,147.22,325.32,151.54Z"/><path class="cls-2" d="M169.16,163.23c4.6.16,9.1.37,8.87,6.19s-5,5.67-9,5.94c-4.41.3-8.29-.53-8.17-6.35C161,162.85,165.46,163.41,169.16,163.23Z"/><path class="cls-2" d="M198.55,204.68c-3.42-.71-8.64.67-8.7-4.41-.08-5.83,5.44-4.92,9.27-5,3.6-.11,8.54-.11,8.64,4.55C207.89,205.86,202.13,203.93,198.55,204.68Z"/><path class="cls-1" d="M70.86,153a11.06,11.06,0,0,1-1.34-16.88,10.91,10.91,0,0,1,16.67,1.51A39.14,39.14,0,0,0,70.86,153Z"/><path class="cls-1" d="M64.46,159.87,47.4,175.34c-1.89-6.26-4.22-13.9,1.35-17.91C52.25,154.92,60.21,152.81,64.46,159.87Z"/><path class="cls-2" d="M70.86,153a39.14,39.14,0,0,1,15.33-15.37C88.7,154,87.08,155.6,70.86,153Z"/></svg>