<svg id="Layer_1" data-name="Layer 1" xmlns="http://www.w3.org/2000/svg" viewBox="0 0 400 400"><defs><style>.cls-1{fill:#fff;}.cls-2{fill:#c21f50;}</style></defs><path class="cls-1" d="M199.42,387c-12.87-.47-18.22-10.36-23-19.7-16.7-32.32-23.52-67.62-29-103.1-3.09-19.77-6.91-38.74-23.07-52.58-17.35-14.88-33.38-11.63-43.09,8.93-8.09,17.14-10.88,35.88-16,53.91-3.7,13-5.95,28.89-23.37,29.65-17.66.76-21.11-15-25.28-27.81C2.08,232.08,3.14,187.16,11.56,142c.55-2.94,1.55-5.89,1.53-8.83C12.67,78.48,51.42,50.7,103.8,48c10.81-.55,18.06-2.78,20-14.34.6-3.66,3.08-5.75,6.56-7.18,22.36-9.16,45.42-14.48,69.74-13.34-.59,26.18-1.07,22.19,22.62,22.79,2.56.07,5.14-.06,7.68.17,4.5.39,8.77,1.64,9,7.09.23,5.76-4.3,6.89-8.72,7.12-6.81.35-13.65.24-20.48.28-5.82,0-10.26,1.8-10.13,8.62.42,21.29-1.62,42.62,1.13,63.87,0,.87-.07,1.74-.1,2.61C192,129.64,181.91,133.22,184,146c1.48,9.13,7.57,13.89,17.19,13.29-.3,8,2,16,0,24.13-2.24,9.42.09,16.19,10.95,18.92,10.51,2.63,13.06,13.3,13.12,21.27s-2.42,18.84-12.83,21.51c-11.69,3-13.18,10.24-11.1,20.12-2.46,4.8-1.43,10-1.46,15Q199.53,333.61,199.42,387ZM76.34,163l-.09-.32c-2.17,10.81,2.79,12.68,12.13,10.17,17.83-4.78,31.9-22.52,32.48-41.51.54-17.81-12.44-35.69-29.9-42.11-10.51-3.87-16.6-2.5-15.32,10.39-15.38-.77-8.35,12.12-11.12,18.73-6.11,4.58-18.67-4.89-19.38,11.47C44.4,147,57.5,139,64,142.71c3.39,6.88-3.39,19.95,11.82,19.32l-.12.64Zm123.75,36.49c-16.79,3.24-26,12.46-25.87,24.53.16,12.79,9.54,21.71,28.42,23.81-7-9.72-19.72-11.56-20.09-24.23C182.16,210.5,197.83,210.63,200.09,199.48Z"/><path class="cls-2" d="M199.42,387q.2-53.38.44-106.78c0-5-1-10.2,1.46-15,21.23-1.93,36.61-15.25,38.89-33.67,2.94-23.85-7-40.51-28.73-47.48-5.48-1.76-11.09-3.16-11.62-9.89s4.85-8.94,9.86-11.73c9.29-5.18,12.57-13.71,10.14-23.87-2.28-9.53-8.11-15.62-18.73-15.49-2.75-21.25-.71-42.58-1.13-63.87-.13-6.82,4.31-8.59,10.13-8.62,6.83,0,13.67.07,20.48-.28,4.42-.23,8.95-1.36,8.72-7.12-.21-5.45-4.48-6.7-9-7.09-2.54-.23-5.12-.1-7.68-.17-23.69-.6-23.21,3.39-22.62-22.79,21.66-1.07,42.28,3.82,62.8,10.14,9.27,2.86,12,7.82,10.53,17-.82,5.28-3.88,11.79,4,16.67,8.07-15.54,21.36-9,33.19-7.47,30.39,3.87,57,16,69,45.67,15.67,38.75,9.65,69.88-30.4,90.28-14.58,7.43-30,11.89-46.1,14.87-28.32,5.26-43.05,21.77-48.1,50.19-6.4,36-11.12,72.55-26.2,106.3C222.85,370,217.86,385.42,199.42,387ZM278.7,156.11c11.48,1.8,14.37-6.25,14.46-14.57.1-8.51-3.08-16.27-14.49-14.5-12.1-2.71-17.13,5-17.14,14.53S266.69,158.71,278.7,156.11Zm27.62-.66c-6.84-3.72-11.26.07-14.79,5.21-4,5.79-3.73,12.1,0,17.85,3.51,5.36,8.3,8.44,15,5,11.29,2.07,14.5-6,14.52-14C321.09,161.27,317.24,153.81,306.32,155.45Zm15.23-37.37c-.12-6.75-4.56-9.7-9.69-10.23-5.39-.57-8.46,3.8-8.92,8.76-.49,5.26,2.73,9.54,7.83,9.75S320.43,123.66,321.55,118.08Zm12.17-12.91c4.06-1.84,9.16-3.35,9-9.92-.18-5.86-4.92-8.48-9.23-8.88-5.25-.49-8.46,4-8.47,9.12C325,100.41,327.13,104.56,333.72,105.17Zm-.17,43c4.45-2.17,10-3.58,9.12-10.41-.73-5.49-5-8.35-9.72-8.48-5.55-.15-8.18,4.46-8.09,9.58S327.7,147.74,333.55,148.21ZM354.83,127c4-2.23,9.75-3.1,9.37-10-.32-5.7-4.28-8.65-9.07-9.25-5.88-.73-8.17,3.68-8.32,8.91S348.7,125.74,354.83,127Zm-81.2-69.72c-3.38,7.23-4.58,11.88-.1,18.74C277,69.65,278.93,65.12,273.63,57.26Z"/><path class="cls-2" d="M313.67,209.23c64.19-23.54,54.66-26.07,72.62-53.64,4.17-.17,4.78,3,5.19,5.93,6.09,43.36,4,85.92-13,126.91-3.82,9.22-9.9,16.32-20.92,15.83-11.22-.51-16.36-9.13-19.33-18.06C329.85,260.91,326.76,234,313.67,209.23Z"/><path class="cls-2" d="M75.64,99.61C74.36,86.72,80.45,85.35,91,89.22c17.46,6.42,30.44,24.3,29.9,42.11-.58,19-14.65,36.73-32.48,41.51-9.34,2.51-14.3.64-12.13-10.17,6.07-.48,11.22-2.21,10.63-9.72-.68-8.64,3.77-11.38,11.56-11,8.12.39,8.35-5.29,8.57-11.16.23-6.28-.86-11.16-8.72-10.93-6.91.2-11.77-2-11.19-10.16S82.26,99.79,75.64,99.61Z"/><path class="cls-2" d="M201,125.7c8.65,4.23,16,9.35,14.4,20.73-1.15,8.36-6.06,12.39-14.26,12.84-9.62.6-15.71-4.16-17.19-13.29C181.91,133.22,192,129.64,201,125.7Z"/><polygon class="cls-2" points="75.86 162.03 76.48 162.35 76.34 162.99 75.73 162.67 75.86 162.03"/><path class="cls-1" d="M306.55,183.49c-6.69,3.46-11.48.38-15-5-3.76-5.75-4-12.06,0-17.85,3.53-5.14,8-8.93,14.79-5.22C321.26,166.16,321.31,173,306.55,183.49Z"/><path class="cls-1" d="M278.7,156.11c-12,2.6-17.17-5-17.17-14.54s5-17.24,17.14-14.53C294.16,138.53,294.17,144.31,278.7,156.11Z"/><path class="cls-1" d="M321.55,118.08c-1.12,5.58-5.6,8.49-10.78,8.28s-8.32-4.49-7.83-9.75c.46-5,3.53-9.33,8.92-8.76C317,108.38,321.43,111.33,321.55,118.08Z"/><path class="cls-1" d="M333.72,105.17c-6.59-.61-8.75-4.76-8.74-9.68,0-5.16,3.22-9.61,8.47-9.12,4.31.4,9.05,3,9.23,8.88C342.88,101.82,337.78,103.33,333.72,105.17Z"/><path class="cls-1" d="M333.55,148.21c-5.85-.47-8.6-4.14-8.69-9.31s2.54-9.73,8.09-9.58c4.7.13,9,3,9.72,8.48C343.58,144.63,338,146,333.55,148.21Z"/><path class="cls-1" d="M354.83,127c-6.13-1.24-8.17-5.18-8-10.36s2.44-9.64,8.32-8.91c4.79.6,8.75,3.55,9.07,9.25C364.58,123.88,358.83,124.75,354.83,127Z"/><path class="cls-2" d="M101,130.36c-2.55,3.54-5,6.13-8.6,4-2.4-1.43-2.12-5-.43-6.63C95.13,124.74,97.86,127.29,101,130.36Z"/><path class="cls-2" d="M76.94,154c-3-.43-4.79-2.25-5.11-4.81-.41-3.35,2.27-3.85,4.83-4,2.36-.15,4,.71,4,3.36A5.34,5.34,0,0,1,76.94,154Z"/><path class="cls-1" d="M47.73,131.49,60.28,125c3.11,3.38,3.6,7.38,1.17,9.46C57.56,137.83,55.18,132.73,47.73,131.49Z"/><path class="cls-1" d="M70.22,115.38l5-9.18c5,1.6,5.66,5.13,6.26,8.8C78.4,117.72,75.25,117,70.22,115.38Z"/><path class="cls-1" d="M78.78,135.36c-4,0-5.41-2-5.68-4.69s.77-5.26,3.83-5.55,4.49,2,5,4.64C82.48,132.81,80.07,134.05,78.78,135.36Z"/></svg>