<svg id="Layer_1" data-name="Layer 1" xmlns="http://www.w3.org/2000/svg" viewBox="0 0 400 400"><defs><style>.cls-1{fill:#c21f50;}.cls-2{fill:#fff;}</style></defs><path class="cls-1" d="M104.69,52.37c3.75-2.21,7.52-1,11.25,0,51,13.36,102.23,14.26,153.76,3.36,3.78-.8,7.93-2.83,11.5,1.46,1.75,2.1,4.45.82,6.61-.28q5.55-2.8,11.06-5.74c12.88-6.84,18.32-6,28,4.8,48.86,54.71,70.79,119.25,68.49,192-1,30.68-7.18,60.68-19.56,89-5.85,13.41-22.22,19.66-35.8,14.16,4.38-9.83-.3-17.93-5.39-25.61-10.81-16.32-22.12-32.31-32.93-48.63-2.13-3.22-5.77-6.06-5.1-11,2.75-.48,5.37-.9,8-1.41,21.18-4.16,36.66-21.19,38.44-42.29,1.71-20.22-10.83-40.22-30.57-47.37-20-7.25-49.94-3-62.41,32.85-9.6-13.92-9.6-13.92,1.24-26.9,21.31-25.49,22.5-59.36,2.75-85.25-2-2.59-3.78-8.29-8.72-4.62s.63,6.27,2.29,8.58c18.14,25.17,16.33,58.15-4.61,79-22.25,22.18-54.88,24.56-80.29,5.55-4-3-7.28-5.17-11.21-.39a46.19,46.19,0,0,1-4.5-4.22c-23.3-28.38-19.36-71.06,8.72-95.06,2.4-2,6.47-3.32,5.81-7.18-.81-4.63-5.58-3.48-8.75-4.45C136,67.64,119.29,62.5,104.69,52.37ZM304,100.58c-.44-.29.14-2.31-1.36-.8-4.7-2.74-9.07-3-12.09,2.3-5.69,10,1.74,22.24,13.42,22.21l-.47.45.5-.35,1.77-2.33c8.48-5.25,7.86-13.7-1.64-22.28l.33.47Zm29.1-3.08c.42,2.53.84,5,1.25,7.58,1.43,4.84,5.23,4.68,8.56,3.21,3.67-1.61,4.91-5.38,3.58-9.06-1.4-3.84-3.41-8-8.41-8C334.54,91.34,331.57,92.88,333.11,97.5ZM335.67,141c6.6-.73,7.8-6,7.34-10.76-.6-6.24-2.24-12.82-10.38-14l-6.11-1.24.15-.44.28.4c-9.95,9.58-7.73,21.16,5.33,27.83-.13,1.06-.32,1-.56,0Zm-34.28-6.9c-4.35-1.73-8.52-1.27-10.59,3.11a16.69,16.69,0,0,0,1,16.8c2.9,4.38,7,7.3,12.68,4.25,6.85-.75,7.15-6,6.8-10.88C310.85,141.12,309.09,135.27,301.39,134.14Zm33,18.64c-3.48-1.8-7.12-3.72-10.42,0-5,5.67-4.26,12.13-1,18.11,3,5.49,7.65,8.15,14,4.57,6.17-1,6.15-6,6.17-10.42A13.6,13.6,0,0,0,334.42,152.78ZM235.89,99.55c5.87-3.75,5.72-7.06.12-11.42-22.76-17.75-57.63-15.5-79.09,5.43-20.55,20-23.19,56.78-5.82,79,4.18,5.35,7.75,6.1,11.33-.35C184.51,190.64,210,192.5,230,177.65,251.65,161.57,260.88,127.58,235.89,99.55Zm29.93-28c-.72-1-1.43-2.08-2.15-3.11-6.51,1.6-13,3.22-19.53,4.8-2.57.63-6.12.81-6.42,3.79-.46,4.5,4.39,5.75,6.95,8.36,1.87,1.92,4,1.62,6.16-.47C255.65,80.29,260.8,76,265.82,71.56Zm52.73,10.91c-.8-4.68-2.86-9.3-9-9.39-5.13-.07-5.79,4.11-5.63,8.2.2,5.28,2.4,9.43,8.13,9.6C316.8,91,318.45,87.45,318.55,82.47Z"/><path class="cls-2" d="M104.69,52.37c14.6,10.13,31.31,15.27,48,20.42,3.17,1,7.94-.18,8.75,4.45.66,3.86-3.41,5.14-5.81,7.18-28.08,24-32,66.68-8.72,95.06a46.19,46.19,0,0,0,4.5,4.22c7.93,6,7.64,12.83,1.86,20.08-5.66,7.1-2.24,15.23-2.74,22.89-6.57,22.22-19.85,37.25-43.83,40.86-2.49.37-4,2.27-5.41,4.3C88.72,290.46,76,309,63.51,327.73c-4.71,7.11-7.59,14.89-4.14,23.6-14.61,5.65-30.26-1.56-36.43-17.45C5,287.71.24,240.06,8.26,191.24c8-48.58,28.14-91.66,59.79-129.35C83,44.12,83.35,44.1,104.69,52.37Zm2.43,53.94C82.63,85.77,54.29,102,51.73,125.65c-1.14,10.5,3.28,19,9.38,26.89-4.15,3-2,5.2.87,7.49,12.81,10.28,35.28,8.4,48.11-4.1,13.3-12.94,15.41-34.95,4.69-48.51C112.53,104.58,110.29,102.4,107.12,106.31ZM133.6,231.07c4.76-7.18,4.22-14.68,1.32-22.32-.47-5.9-3.35-10.41-8.31-14.71-7.76,9.33-11.23,5.16-13-3.87a10.2,10.2,0,0,0-.79-2.55c-3.58-7.25-10.25-4.05-15.72-4.4-4.09-.27-6.69,1.11-7.58,6.38-1.63,9.74-7.63,16.85-17.67,18.93-5.93,1.22-6.87,4.7-6.67,9.6.21,5.26-.86,10.84,6.71,12.55,8.07,1.83,13.6,5.35,4.17,13.16,4,4.64,8.16,7.13,13.3,8.06,8.42,3.93,16.72,3.89,24.87-.76C124.54,248.16,131.49,242,133.6,231.07Z"/><path class="cls-2" d="M250,207.71c12.47-35.85,42.37-40.1,62.41-32.85C332.15,182,344.69,202,343,222.23c-1.78,21.1-17.26,38.13-38.44,42.29-2.61.51-5.23.93-8,1.41-.67,4.94,3,7.78,5.1,11,10.81,16.32,22.12,32.31,32.93,48.63,5.09,7.68,9.77,15.78,5.39,25.61-15.21-20.17-30.48-40.28-45.57-60.52a59.65,59.65,0,0,0-13.12-13.18,104,104,0,0,1-26.9-28.24C245.81,236,248.42,221.86,250,207.71Zm81.24,10.55a34.56,34.56,0,0,0-34.54-34.49c-20.21,0-35.7,15.43-35.44,35.38a35,35,0,1,0,70-.89Z"/><path class="cls-1" d="M59.37,351.33c-3.45-8.71-.57-16.49,4.14-23.6C76,309,88.72,290.46,101.33,271.83c1.37-2,2.92-3.93,5.41-4.3,24-3.61,37.26-18.64,43.83-40.86,1.21,21.85-13.55,34.39-27.51,47.41-1.68,1.57-3.27,3.24-4.9,4.86-3.25-.07-5.94.67-6.5,4.5-16.54,18.88-30,40.11-45.57,59.7C63.9,345.91,61.62,348.6,59.37,351.33Z"/><path class="cls-2" d="M111.66,283.44c.56-3.83,3.25-4.57,6.5-4.5C165,315.58,215.47,319,269.07,295.06,241.67,325,160.3,318.85,111.66,283.44Z"/><path class="cls-2" d="M177.63,271.32H221c2.91,19.05,2.91,19.05-15.18,19-9.17,0-18.35,0-27.75,0C176.42,283.84,177.18,277.75,177.63,271.32Z"/><path class="cls-2" d="M171.26,236c10.26,0,18.79,5.67,18.69,11.29-.12,7.27-8.28,13.82-17.17,13.79-8.67,0-17.75-7.35-16.36-14.32C158.1,238.37,165.34,236.5,171.26,236Z"/><path class="cls-2" d="M228,236c8.37.1,16.91,6.22,16.48,11.81-.55,7.27-8.61,13.39-17.43,13.22-8.49-.16-16.8-7.33-16.43-14.18C210.88,241.12,219.23,235.91,228,236Z"/><path class="cls-2" d="M235.89,99.55c25,28,15.76,62-5.91,78.1-20,14.85-45.47,13-67.55-5.46-13-14.68-17.46-31.61-12-50.45C161,85.33,206.63,72.32,235.89,99.55Z"/><path class="cls-2" d="M337,175.45c-6.32,3.58-11,.92-14-4.57-3.25-6-4-12.44,1-18.11,3.3-3.71,6.94-1.79,10.4,0C340.86,159.66,342.53,167.14,337,175.45Z"/><path class="cls-2" d="M305.78,122.06,304,124.39l0-.1c-11.68,0-19.11-12.16-13.42-22.21,3-5.34,7.39-5,12.07-2.31a2.28,2.28,0,0,0,1.38.81l.46-.33-.33-.47C307.4,107,311.42,114.18,305.78,122.06Z"/><path class="cls-2" d="M304.5,158.3c-5.71,3-9.78.13-12.68-4.25a16.69,16.69,0,0,1-1-16.8c2.07-4.38,6.24-4.84,10.57-3.12C309.67,143.18,310.43,149,304.5,158.3Z"/><path class="cls-2" d="M326.52,115.07l6.1,1.23c9,9.2,9.77,15.41,3.05,24.74l-3.95,1.85.56,0C319.22,136.19,317,124.61,327,115Z"/><path class="cls-2" d="M265.82,71.56c-5,4.43-10.17,8.73-15,13.37-2.19,2.09-4.29,2.39-6.16.47-2.56-2.61-7.41-3.86-6.95-8.36.3-3,3.85-3.16,6.42-3.79,6.52-1.58,13-3.2,19.53-4.8C264.39,69.48,265.1,70.52,265.82,71.56Z"/><path class="cls-2" d="M318.55,82.47c-.1,5-1.75,8.55-6.46,8.41-5.73-.17-7.93-4.32-8.13-9.6-.16-4.09.5-8.27,5.63-8.2C315.69,73.17,317.75,77.79,318.55,82.47Z"/><path class="cls-2" d="M333.11,97.5c3.59-2.28,4.8.09,5.32,3s-.14,5.37-4.08,4.61C334,102.55,333.53,100,333.11,97.5Z"/><path class="cls-1" d="M89.36,251.9c-5.14-.93-9.35-3.42-13.3-8.06,9.43-7.81,3.9-11.33-4.17-13.16-7.57-1.71-6.5-7.29-6.71-12.55-.2-4.9.74-8.38,6.67-9.6,10-2.08,16-9.19,17.67-18.93.89-5.27,3.49-6.65,7.58-6.38,5.47.35,12.14-2.85,15.72,4.4a10.2,10.2,0,0,1,.79,2.55c1.77,9,5.24,13.2,13,3.87,5,4.3,7.84,8.81,8.32,14.71a16.08,16.08,0,0,1-12.36-3.82c-3.27-2.79-5.67-2.06-8.38.65-10.16,10.21-20.41,20.34-30.44,30.3C85.53,241.72,91,245.57,89.36,251.9Z"/><path class="cls-1" d="M61.11,152.54c22.32,17.17,45.72,5.31,52.17-11.32,4.94-12.73,2-24.34-6.16-34.91,3.17-3.91,5.41-1.73,7.66,1.11,10.72,13.56,8.61,35.57-4.69,48.51C97.26,168.43,74.79,170.31,62,160,59.13,157.74,57,155.56,61.11,152.54Z"/><path class="cls-1" d="M114.23,251.14c1-12.19,8-19.49,19.38-20.07C131.49,242,124.54,248.16,114.23,251.14Z"/><path class="cls-2" d="M83,104.51c14.47-.15,25.11,10.17,25.11,24.37a24,24,0,0,1-24.16,24.49c-14.44.23-25-10.1-25-24.42C59,114.87,69.05,104.66,83,104.51Zm-4,8.21c-7.86,2.63-12.15,8-12,16.37S71.1,142.92,79.37,145c7.6,1.59,13.8-.16,18.36-6.94,4.09-6.06,4.36-11.69.23-17.95C93.24,112.94,86.9,111,79,112.72Z"/><path class="cls-2" d="M290.05,244.15c-11.38-1.85-19.28-10.43-20.95-22.74s5.39-22.87,18.84-28.58l17.9,25.7,0-.2C301.57,227.54,292.8,234,290.05,244.15ZM289.77,225l1.22.59c0-.24-.05-.48-.07-.71l-1.35.4c1.25-4.36-.91-9,1-13.27C285.69,216.12,285,220.43,289.77,225Z"/><path class="cls-1" d="M305.84,218.53l-17.9-25.7c16.16-2.66,28,2.75,33.18,15.12a27.75,27.75,0,0,1-8.58,32c-6.72,5.16-14.22,6.89-22.49,4.25,2.75-10.15,11.52-16.61,15.81-25.82l8.39.51V218Z"/><path class="cls-1" d="M79,112.72c8-1.7,14.29.22,19,7.4,4.13,6.26,3.86,11.89-.23,17.95C93.17,144.85,87,146.6,79.37,145,71.41,134.35,72.18,123.57,79,112.72Z"/></svg>