<svg id="Layer_1" data-name="Layer 1" xmlns="http://www.w3.org/2000/svg" viewBox="0 0 400 400"><defs><style>.cls-1{fill:#fff;}.cls-2{fill:#c21f50;}</style></defs><path class="cls-1" d="M58.88,329.53c-22.76,8.19-37.33.31-43.61-24.38-8-31.6-4.07-63.19,1.44-94.64,4.75-27.09,12.71-53.38,20.35-79.78,5.16-17.79,16.67-31.81,26-47C73.33,67,106.57,62.14,123.88,72.79c-4.66-.21-9.33-.23-14-.65C95.83,70.85,82.33,74.75,74.7,83.2c25.57-9,47.74-6.15,66.85,13,6.85,6.88,16.5,8.79,25.88,9.83,10.88,1.19,21.84,1.62,32.76,2.39l-.3-.43c.67,5.17-2.28,6.64-6.78,7.4-6.94,1.18-12.08,5.27-15.59,11.37-9,1.56-18.56-.87-27.29,3.26-3.26-.07-4.56,1.81-4.75,4.79-4.28,10.17-3.84,11.63,4.84,16.06,9.79,8,21.59,1,32,4.28,2,1.24,3.92,3.41,6,3.57,12,.87,12.26,8.54,12.06,18-.5,23.52-.72,47.08.16,70.58.42,11.33-3.19,14.75-14.36,14.83-28.67.23-56.23,5-78.82,25.07C91.34,301.49,75.05,315.44,58.88,329.53ZM162,194.92l10,.88c7.54,7.82,7.16,15.7.19,23.64-19.7.69-19.7.69-19.78,20.87-1.85,5-9.88,2.06-11.43,8.33,17.48.39,31-8.45,38.06-24.44,6.24-14.09,2.92-33.57-7.63-44.84-10.07-10.76-20.39-14.55-30-10.81,3.13,3.16,8.63,1.91,11,6.13q.27,6.34.55,12.7C151.31,195.42,155.36,196.7,162,194.92ZM80.49,162.06c17.14.65,27.83-8.71,27.71-24.25-.11-15-10.5-24.32-26.86-24-14.76,3.27-22.42,11.3-22.57,23.64S66.31,158.4,80.49,162.06Zm11-61.36c35.74,21.07,28,60.21-.2,73.44,15.65-1.16,28.73-14.47,30.66-31.2C124.28,122.62,113,106.68,91.48,100.7Zm35.66,139.63c.46-13.9-4.85-19.36-18.33-19.2C110.67,231.09,117.64,236,127.14,240.33Zm1.5-66.55c-10.34,5.71-18.29,10-19.89,21.46C122.36,195.16,126.91,187.58,128.64,173.78Z"/><path class="cls-2" d="M58.88,329.53c16.17-14.09,32.46-28,48.47-42.3,22.59-20.11,50.15-24.84,78.82-25.07,11.17-.08,14.78-3.5,14.36-14.83-.88-23.5-.66-47.06-.16-70.58.2-9.44,0-17.11-12.06-18-2.07-.16-4-2.33-6-3.57a90.22,90.22,0,0,1-4.79-28.39c3.51-6.1,8.65-10.19,15.59-11.37,4.5-.76,7.45-2.23,6.78-7.4,14.48.22,28.87-.45,43-4,6.54-1.62,12.81-3.92,17.6-8.74,19.28-19.39,41.39-21.26,65.64-11.16a72.42,72.42,0,0,0,7.78,2.26l5.35,2.34c23.42,25.88,29.74,59.12,38.1,91.13,8.95,34.27,13.69,69.29,11.29,105-.77,11.53-2.77,22.66-8.47,32.75-9.05,16-23,19.62-38.81,10.4-13-7.59-24-17.67-34.25-28.47-26.77-28.18-61.18-42.81-97.86-36.4-41.43,7.24-87.41,8.29-117.47,47.08C83.9,320.41,72.18,327.05,58.88,329.53Zm255.85-149c9.9,2.73,12.09-3.92,12.83-11.21.86-8.53-3.12-12.28-12.4-12.86-10.42-2.82-15.32,3.42-15.29,12C299.91,176.49,303.85,183.81,314.73,180.54Zm-5.64-59.21,5.6-1.49c10.69,1.07,13.31-5.35,12.8-14.2-.44-7.68-3.71-10.17-12.4-10.14-7.62-3.36-12.17.74-14.58,7.07-3.46,9.11,2,14.6,9.3,18.77l-.39.75Zm-22,29.15c8.91-.19,11-6.79,10.63-13.41-.38-6.8-3.62-12.8-12.39-12.06-.13,0-.34-.91-.52-1.39l.89.57c-6.41-.46-12,1.37-14.67,7.49-3.46,7.91,0,14.4,5.58,20.07l-.45.72.09-.85Zm61-25.32C337.2,123,331,127.63,331.4,138.64c.36,10.44,6.67,14.39,16.86,11.92,7.45-1.16,11.06-6.14,11-13.05C359.16,130.75,356.17,125.35,348.11,125.16Zm-141.94-5.83c-7.13-.52-14.27-.73-19.51,5.29-4.84,5.54-7.56,11.62-4.7,19.32,4,10.71,12.41,13.08,22.47,12.9.31,1.61,1.35,3.72,2.78,3,11.26-5.83,23.54-4.35,35.47-5.53,4.68-.46,9.16-2.39,11-7.54l-.18.18c5.59-12.08,1.47-17.76-12.51-17.23l-4-.39c-8.23-2.13-16.19-4.3-22.71-10.69C210.48,114.87,207.52,116,206.17,119.33Zm47,63.52c-6.46-.2-13.21,2.87-17.71-6.07-2.79-5.55-9-4.27-13.87.33-15.29,14.34-15.51,46.46-.3,60.7,4.62,4.32,10.19,6.66,13.95.89,4.82-7.39,11.1-7.13,18.08-6.7,15.23,1.56,26.57-7.86,27.11-22.54C281,192.42,270.28,181.92,253.15,182.85Zm8,67c22.44-.89,38-19.18,38-42.45-.08-25.28-17.32-42.91-42.43-43.41C294.83,183.74,295.94,225.34,261.1,249.87Z"/><path class="cls-2" d="M200.19,108.47c-10.92-.77-21.88-1.2-32.76-2.39-9.38-1-19-3-25.88-9.83-19.11-19.2-41.28-22.1-66.85-13,7.63-8.45,21.13-12.35,35.21-11.06,4.64.42,9.31.44,14,.65,22.6,8.66,44.18,20.26,69.58,20C204.47,92.69,198,103.14,200.19,108.47Z"/><path class="cls-1" d="M339.27,88.77l-5.35-2.34c-16-15.5-35.4-16.05-56.29-12.29C290.5,59.34,329.62,69.17,339.27,88.77Z"/><path class="cls-2" d="M172.14,219.44c7-7.94,7.35-15.82-.19-23.64-1.21-12-9.65-17.26-19.61-21.12-2.32-4.22-7.82-3-11-6.13,9.58-3.74,19.9,0,30,10.81,10.55,11.27,13.87,30.75,7.63,44.84-7.07,16-20.58,24.83-38.06,24.44,1.55-6.27,9.58-3.32,11.43-8.32C162.43,236.65,170.72,231.3,172.14,219.44Z"/><path class="cls-2" d="M80.49,162.06c-14.18-3.66-21.87-12.38-21.72-24.63s7.81-20.37,22.57-23.64l4.53,3.59c-.24,2.17-.48,4.35-1.05,9.48C82.39,118,78.07,116.22,73.29,121c-3.83,3.83-12.73,6.9-4.83,14.81,1.29,1.29,2,2.15.18,3.52-8.49,6.5-.51,10.09,2.85,14,5,5.8,9.55,2.84,12.62-2.08,3.49,1.26-.32,6.4,4.56,5.94Z"/><path class="cls-2" d="M127.14,240.33c-9.5-4.38-16.47-9.24-18.33-19.2C122.29,221,127.6,226.43,127.14,240.33Z"/><path class="cls-2" d="M128.64,173.78c-1.73,13.8-6.28,21.38-19.89,21.46C110.35,183.82,118.3,179.49,128.64,173.78Z"/><path class="cls-2" d="M152.89,187.38l9.06,7.54C155.36,196.7,151.31,195.42,152.89,187.38Z"/><path class="cls-1" d="M253.3,232c-7-.43-13.26-.69-18.08,6.7-3.76,5.77-9.33,3.43-13.95-.89-15.21-14.24-15-46.36.3-60.7,4.91-4.6,11.08-5.88,13.87-.33,4.5,8.94,11.25,5.87,17.71,6.06,3.72,2.14,7.56,4.11,11.15,6.46,14.78,9.69,14.84,26.16.11,36.26C260.89,228,257,229.87,253.3,232Zm1.42-7.25c1-.72,2.14-1.37,2.08-1.54a15.81,15.81,0,0,0-1.62-2.65c-.54.47-1.54,1-1.52,1.41A8.85,8.85,0,0,0,254.72,224.75ZM270,206.44c-.28.62-.56,1.24-.85,1.86l1.9.84c.27-.64.54-1.27.82-1.9Zm-29.89,2.84c.58-.36,1.47-.6,1.59-1.05s-.27-1.36-.45-2.06L239,207.56C239.39,208.13,239.76,208.7,240.12,209.28Z"/><path class="cls-1" d="M206.17,119.33c18.19,12.59,17.52,27.13-1.74,37.51-10.06.18-18.49-2.19-22.47-12.9-2.86-7.7-.14-13.78,4.7-19.32C191.9,118.6,199,118.81,206.17,119.33Z"/><path class="cls-1" d="M348.26,150.56c-10.19,2.47-16.5-1.48-16.86-11.92-.38-11,5.8-15.6,16.7-13.48C356.77,133.56,357.62,142,348.26,150.56Z"/><path class="cls-1" d="M276.6,151.75c-5.57-5.67-9-12.16-5.58-20.07,2.68-6.12,8.26-8,14.62-7.52,10,8.22,11.08,17,1.44,26.32l-10.84,1.14Z"/><path class="cls-1" d="M309.81,121.34c-7.33-4.17-12.76-9.66-9.3-18.77,2.41-6.33,7-10.43,14.57-7.08,8.86,8.25,7.26,16.35-.39,24.35l-5.6,1.49Z"/><path class="cls-1" d="M314.73,180.54c-10.88,3.27-14.82-4-14.86-12.11,0-8.54,4.87-14.78,15.28-12C322.55,164.62,323.8,172.67,314.73,180.54Z"/><path class="cls-1" d="M232.56,132.2l4.45-2.89,4,.4c-.57,4.37-4.93,2-6.9,3.88C233.62,133.11,233.09,132.64,232.56,132.2Z"/><path class="cls-1" d="M85.87,117.38c10,3.09,17.49,8,17.5,20.16,0,10.58-4.85,16.78-14.7,19.61-4.88.46-1.07-4.68-4.56-5.94-3.07,4.92-7.58,7.88-12.62,2.08-3.36-3.88-11.34-7.47-2.85-14,1.79-1.37,1.11-2.23-.18-3.52-7.9-7.91,1-11,4.83-14.81,4.78-4.77,9.1-3,11.53,5.87C85.39,121.73,85.63,119.55,85.87,117.38Z"/><path class="cls-1" d="M148.38,133.48c.52-1.23,1-2.45,1.55-3.68,3.45-.12,6.94-.59,10.35-.27,7.29.7,11.47,4.87,11,12.33-.48,7.12-5.25,9.9-12,9.78-3.09-.06-6.18-.22-9.28-.34l-2.53-4.64.18-.14c4.09.94,8.14,2.41,12.28,2.68,4.57.31,7.11-2.71,7.56-7.24.41-4.23-.46-7.88-5.1-9.35-4.41-1.38-8.42.09-12.34,2A8.28,8.28,0,0,0,148.38,133.48Z"/><path class="cls-1" d="M145.2,134.54l3.19-1.06A8.51,8.51,0,0,1,150,134.6l-2.4,11.92-.18.14C143.1,143.28,145.66,138.63,145.2,134.54Z"/><path class="cls-2" d="M254.72,224.75a8.85,8.85,0,0,1-1.06-2.78c0-.45,1-.94,1.52-1.41a15.81,15.81,0,0,1,1.62,2.65C256.86,223.38,255.71,224,254.72,224.75Z"/><path class="cls-2" d="M240.12,209.28c-.36-.58-.73-1.15-1.09-1.72l2.23-1.39c.18.7.61,1.46.45,2.06S240.7,208.92,240.12,209.28Z"/><path class="cls-1" d="M234.12,133.59c-5.64,8.18-2.5,13.45,6.95,17.12-6.63,2.6-10.32-.42-12.09-4.59-2.12-5-3-10.68,3.58-13.92C233.09,132.64,233.62,133.11,234.12,133.59Z"/><path class="cls-2" d="M253.71,146.75c-1-2-2.7-3.83-.16-7.11,0,3.05,0,5.16,0,7.28Z"/><path class="cls-2" d="M147.61,146.52,150,134.6c3.92-1.9,7.93-3.37,12.34-2,4.64,1.47,5.51,5.12,5.1,9.35-.45,4.53-3,7.55-7.56,7.24C155.75,148.93,151.7,147.46,147.61,146.52Z"/></svg>