<svg id="Layer_1" data-name="Layer 1" xmlns="http://www.w3.org/2000/svg" viewBox="0 0 400 400"><defs><style>.cls-1{fill:#fff;}.cls-2{fill:#c21f50;}</style></defs><path class="cls-1" d="M123.41,113.84H274.53c3-9.17,1.5-21.22,14.49-24.37l0-.49c-7.58,9.11-3,19.54-3.1,30.43H123.05c3.51,19.89-18.73,22.31-23.38,37.4L119.54,158c0,7.38-.18,14.13.06,20.86.23,6.52-3.11,8.78-8.94,7.79-12.25-2.07-16.9,2.91-14.94,15,.42,2.59-.47,5.4-.81,8.62H66.53c-.47-6.62-.9-12.71-1.5-21.23L38.16,219.22C53,235.69,73.84,238.85,97.77,235.86c1.13,23.75,13.45,39,36.66,47.49-14.81-1.88-14.81-1.88-29.84-12.84-6.46,10.12-13,20.11-19.3,30.3-10.87,17.68-29.6,25.8-48.27,20.68C17.47,316.13,4.93,300,6.29,278.21c2.36-38,5-76,9.63-113.8,5-40.81,51-73.83,100.14-46.2C118.46,116.75,120.94,115.29,123.41,113.84ZM72.21,200c5.07,6.91,13.09,5.83,16.93,1.63,3.42-3.73,6-12.52-3.43-16.1L71,183.53c-3.86-4.88,1.39-11.62-3.63-16.67-5.1,4-10.4,7.73-13.19,13.8,5.53,5.31,11.91-.85,17,2.7Zm37-35.55c-16.06-3.93-19.39-.86-15.84,14.58,4.51,7.26,12.24,5.57,16.14,2.13C113.8,177.31,114,169.93,109.2,164.4Zm-36.43-4.08c7.06,1.64,13,3.38,16.34-1.2,2.6-3.62,2.74-9.35-2.69-15.84-2.75,3.81-4.77,6.78-7,9.6C77.75,155,75.83,156.93,72.77,160.32Z"/><path class="cls-2" d="M369.59,217.12c-14.46,13.55-31.09,21.35-50.84,22.12-7.29.29-12.52-1.78-12.8-10.44-.32-9.67,6.91-7.66,11.74-7.07,14.35,1.76,22.37-2.34,20.5-18.4-1-9,4.71-11.37,12-10.23,13.5,2.08,17-4.45,15.43-16.33a26.78,26.78,0,0,1,0-7.21c1.37-9.81-2.38-14.26-12.57-12.89-3.46.47-7,.07-11.78.07,4-12.14,14-17.46,20.89-25.14,3.32-3.68,6.26-.47,8.82,2.47a50.39,50.39,0,0,1,12.65,28c3.81,37.46,7.28,75,10,112.51,1.66,23-9.82,40.42-28.35,46.13C345,327,326.81,319.57,314.1,299.9c-2.17-3.36-3.74-7.39-6.61-10-16-14.36-8.49-28.95-1.13-43.8,2.9-5.84,8.07-4.23,12.59-4.43C339.51,240.77,357.18,234.05,369.59,217.12Z"/><path class="cls-1" d="M107.06,238.7c.81-19.64,15.56-34.24,33.52-33.17,18.83,1.13,32.81,16.54,31.86,35.14-.88,17.3-16.2,31.72-33.27,31.31C120.73,271.54,106.32,256.61,107.06,238.7Zm51.11-14.5c-10.44-7.38-20.69-5.55-29.34,2.37-9.72,8.89-10.76,19.88-3.86,31.34,10.84,8.86,24.52,7.94,33.61-2.26C167.2,246,167,233,158.17,224.2Z"/><path class="cls-1" d="M299.11,193.56a21.19,21.19,0,0,0-2.37-.36c-25.13-1.07-24.84-1.06-24.3-25.28.19-8.2,2.86-12.34,11.21-11,14.34,2.31,21-2.64,18.13-17.82-1.64-8.82,2.22-12.79,11.28-11.4,1.56.24,3.28-.33,4.78,0,6.46,1.63,16.89-4.36,18.86,4.51,2.24,10.08,4.78,21.88-5.9,30.94-11.21,9.51-21.4,20.22-32,30.4Zm-8.25-7.71c7.05.12,10.42-4.32,10.7-10.39s-2.29-10.94-9.31-11.74c-8.38-1.69-12.88,2.76-13.68,10.24C277.67,182.28,282.87,185.89,290.86,185.85Zm30.76-29.93c6.47-.83,9.84-4.85,9.77-11-.07-6-2.95-10.42-9.69-11-8.28-1-13.27,3.26-13.36,11C308.25,152.79,313.48,156.71,321.62,155.92Z"/><path class="cls-2" d="M262.29,205.92c19.08.75,32.17,15.34,31.41,35-.68,17.35-15.93,31.7-33.16,31.19-18.64-.55-33.8-16.28-33-34.21C228.46,218.64,243.09,205.16,262.29,205.92Zm-16,52c11.34,8.65,25.35,7.43,33.94-2.95C288.46,245,288,233,279,224.61c-2.4-11-11.74-11.27-19.69-11-12.49.46-21,7.89-23.49,20.2C233.8,243.74,235.82,252.91,246.27,257.9Z"/><path class="cls-1" d="M198.29,130.5c8.8,0,17.59.13,26.38,0,5.58-.11,7.81,2.23,7.85,7.87,0,5.87-1.64,8.9-8.12,8.84-17.59-.15-35.18,0-52.77.2-5.82.07-7.51-2.61-7.47-8.09s1-9.34,7.74-9.16c8.79.24,17.6.06,26.39.06Z"/><path class="cls-1" d="M197,233.24c-1.27-3.45-3.77-5.44-7.24-3.91a5.43,5.43,0,0,0-3.44,5.65c.35,3.77,3.16,4.2,5.63,5.1,11.43,4.21,17.52.73,20.86-10.51,5.21-17.48,14.75-30.93,34.48-34,2.6-.4,5-2,7.18-3v-28c2.06,8.56.46,17.53,3.48,26.89-4.79,2-9.78,3.77-14.55,6-16.1,7.63-25.63,20.38-27.09,38.11-1.44,17.45,6.33,30.85,20.49,40.9,4.78,3.39,11.43,3.91,14.53,10,.94,1.82,3.63,1.87,5.22.51a5.13,5.13,0,0,0,1.44-4.11c-.4-2.16-2.34-2.76-4.55-2.63-19.32,1.19-32.21-7.32-39-25.82-1.22-3.36-2-6.89-3-10.32C212.19,233.13,206.47,230.69,197,233.24Z"/><path class="cls-2" d="M298.14,82.6c10.85-7,21.69-7.84,35.12-.12C319.94,85.75,309,83.93,298.14,82.6Z"/><path class="cls-1" d="M328.42,204.59c-.27,6.08-3,10.66-9.65,11.07-6.88.41-10-4.23-10.43-10.35-.44-6.8,2.75-11.78,10.05-11.89C325.22,193.31,327.74,198.24,328.42,204.59Z"/><path class="cls-1" d="M206.05,191c-1.42,2.56-6.36.88-3.9,5.68,3.69,7.23,1.56,13.87-6.38,15.73-4.61,1.08-8.88-2.91-9.08-8.73-.29-8.49,3.5-13.61,12.35-14C201,189.59,202.9,190.37,206.05,191Z"/><path class="cls-1" d="M358.29,174.15c-.68,6.23-2.87,11.4-9.77,11.7s-10.18-4.62-10.51-10.66,2.8-11.12,9.61-11.4S357.44,168,358.29,174.15Z"/><path class="cls-1" d="M157.9,183.24c.37-5.75-3-12.13,2.57-14.84s12.8-2.42,18.41.19c6,2.79,2,9,3.07,14.65Zm7.87-12.82c-.31,0-3.61.39-3.69,5.5-.09,6.11,4.19,5.63,8.17,5.67,3.77,0,7.22-.31,7.29-5.42C177.63,170,173.23,170.71,165.77,170.42Z"/><path class="cls-1" d="M106.36,83.94H72.11C78.62,75.12,94,74.7,106.36,83.94Z"/><path class="cls-1" d="M243.62,174.75c-7.48,6.54-15.19,7.77-23.57,9.21-2.15-5.92-1.85-11.06.71-17.66Zm-20.54-3.9c-.34,4.49-2.36,9.2,2.13,10.16,4.66,1,10.16.26,12.57-5.73C234,170.39,228.79,171.11,223.08,170.85Z"/><path class="cls-2" d="M123.41,113.84c-2.47,1.45-5,2.91-7.35,4.37-2.89-9.3,2.65-19.82-4-28.58l.06-.07C121.48,95,125.61,103,123.41,113.84Z"/><path class="cls-2" d="M299.11,193.56l-.35,0c4.7,5.88,3.39,12.21,2.18,19.44C286.8,206.7,293.24,200.11,299.11,193.56Z"/><path class="cls-2" d="M197,233.24c9.46-2.55,15.18-.11,14.46,10.86l-21.61.39.57-.48.55.5c-1.9-.44-4-.55-4.87-3.09Z"/><path class="cls-1" d="M191,244.51l-.55-.5-.57.48C190.21,245.92,190.58,245.89,191,244.51Z"/><path class="cls-2" d="M112,89.63l-.18-.81.24.74Z"/><path class="cls-1" d="M289,89.47l-.72-.65c.24.07.49.14.74.19C289.05,89,289,89.47,289,89.47Z"/><path class="cls-2" d="M71.22,183.36c-5.1-3.55-11.48,2.61-17-2.7,2.79-6.07,8.09-9.82,13.19-13.8,5,5-.23,11.79,3.63,16.67Z"/><path class="cls-2" d="M72.77,160.32c3.06-3.39,5-5.31,6.66-7.44,2.22-2.82,4.24-5.79,7-9.6,5.43,6.49,5.29,12.22,2.69,15.84C85.82,163.7,79.83,162,72.77,160.32Z"/><path class="cls-2" d="M109.2,164.4c-4.85,5.32-9,11.43-15.84,14.58C89.81,163.54,93.14,160.47,109.2,164.4Z"/><path class="cls-2" d="M85.71,185.48C84,192.94,78.37,196.67,72.21,200l-1-16.59-.19.17Z"/><path class="cls-2" d="M125,257.91c-6.9-11.46-5.86-22.45,3.86-31.34,8.65-7.92,18.9-9.75,29.34-2.37C160.63,247.21,150.06,259.14,125,257.91Z"/><path class="cls-2" d="M321.62,155.92c-8.14.79-13.37-3.13-13.28-11,.09-7.72,5.08-12,13.36-11C328.27,141.28,327.75,148.61,321.62,155.92Z"/><path class="cls-2" d="M290.86,185.85c-8,0-13.19-3.57-12.29-11.89.8-7.48,5.3-11.93,13.67-10.24C298.68,171.52,299,178.94,290.86,185.85Z"/><path class="cls-1" d="M246.27,257.9c-10.45-5-12.47-14.16-10.46-24.07,2.51-12.31,11-19.74,23.49-20.2,7.95-.29,17.29-.06,19.69,11C282.66,247,272,257.83,246.27,257.9Z"/><path class="cls-2" d="M165.77,170.42c7.46.29,11.86-.4,11.77,5.75-.07,5.11-3.52,5.45-7.29,5.42-4,0-8.26.44-8.17-5.67C162.16,170.81,165.46,170.41,165.77,170.42Z"/></svg>