<svg id="Layer_1" data-name="Layer 1" xmlns="http://www.w3.org/2000/svg" viewBox="0 0 400 400"><defs><style>.cls-1{fill:#fff;}.cls-2{fill:#c21f50;}</style></defs><path class="cls-1" d="M81,363.2c-.54-16.82,5.47-21.27,34.22-24.39-2.06-22.48.42-44.95-1.92-67.84-2.21-21.6-13.57-39.7-16.93-60.56s-8.9-41.14-10.65-62.19c-1.36-16.26-1.85-32.49,1-48.68A62.4,62.4,0,0,1,92.6,81.41C98.37,70.34,107.27,63.94,120.09,64c12.41,0,21.18,6.1,26.83,16.85,7,13.4,8.68,28.11,8.39,42.78-.77,40.49-6.34,80.89-21.5,118.07-12.11,29.71-11.87,59.21-12.53,89.52-.13,6,1.58,8.6,8.07,8.57,44.38-.2,88.76-.07,133.13-.12,7.75,0,13.42-3.15,15.74-11.52-17.63-6.55-3.39-24.21-14-34-16.93-2.44-16.93-2.44-17-22.15-.08-81.73,0-163.45-.46-245.17-.06-10.53,3.13-14.19,13.66-13.73,16.25.71,32.56.36,48.84.14,6.86-.09,9.79,2.52,9.77,9.58q-.27,130.73-.21,261.45c0,6.5-2.76,9.94-9.13,9.14-11.88-1.48-13.36,6-13.66,14.87a63.45,63.45,0,0,0,0,8.61c.69,6.49-2.36,9.47-8.54,9.87a3.24,3.24,0,0,0-3.71,2.31c-3.74,12.94-13.13,15-25.2,14.86-50.33-.44-100.67-.2-151-.12-15.58,0-21.19,4.94-22.72,19.46L85,363ZM263.13,37.3c-1.92,2.35-3.23,1.26-3.77-.95-.44-1.81.71-3.25,2.63-2.74s3.8,1.55,1.13,3.7c5.39,2.37-1,3.14-.63,4.93,2.69-.14,5.57,2.13,8-.39C269.61,37.47,263,43.3,263.13,37.3ZM279.2,283.94c3.78.1,7.57.12,11.36.31,5.93.31,6.24-3.89,5.2-7.59-1.83-6.49-6.91-3-10.85-2.66a30.18,30.18,0,0,0-5.49-1c-4.2,0-9.56-1.28-9.71,5.52C269.55,285.73,275.09,283.76,279.2,283.94Zm9.63-224.25c-.17-1.25-.4-2.5-.51-3.76-.29-3.54,1.43-8.09-4.82-8.32-5.22-.19-6.58,2.7-6.45,7.19.16,5.39-4,4.71-7.36,5.1-3.83.45-4.21,3-4.21,6.16S267,70.69,270,71c2.52.24,5,.46,7.56.69.17,3.4.33,6.79.53,11,3.8-.69,6.82,1.08,9.85-1.35.23-3.13.46-6.26.72-9.84,2.65-.24,5.12-.63,7.6-.64,4.18,0,4.31-2.93,4.43-5.86s-.79-4.93-4.22-4.92C293.89,60.09,291.36,59.83,288.83,59.69Zm-185,56.08c6,5.62,12.54,8.77,21.31,6.59,14.49-3.6,22.85-20.86,10-35.95-6-3-11.15-7.51-19.19-5.59C101.16,84.34,92.6,100.63,103.8,115.77ZM283.58,237c-4.85.28-7.77,2.88-8.26,7.51-.53,5,2.51,7.76,7.17,8s8.11-1.93,8.14-7.06C290.66,240.89,288.4,237.73,283.58,237Zm-.45-23.29c-4.84.16-7.33,3.29-7.74,7.86s2.37,7.18,6.82,7.56c4.87.4,8.48-1.92,8.55-6.87C290.83,217.94,288.49,214.35,283.13,213.75Zm6.7-62.15c-.71-3.93-2.52-6.79-6.8-6.73s-6.39,2.83-6.47,6.79c-.08,4.17,2.4,6.53,6.6,6.38C287.17,157.89,289.65,155.78,289.83,151.6Zm-7.21,32.92c-1.48,1.73-5.82-1.66-5.57,3.82.19,4.38,2.33,4.88,5.16,4,2.13-.68,6.55,2.1,6.09-4.09C287.93,183.22,284.62,185.55,282.62,184.52Zm24.47-33.6a5.23,5.23,0,0,0-5.14-4.36c-3-.19-4.75,2-5.12,4.69-.53,3.68,1.93,5.17,5.21,5.2C304.7,156.47,307.24,155.89,307.09,150.92Zm-27.73,13.26c5.66,1.51,9.31,3.06,12.49-1.35C286.24,161.59,286.24,161.59,279.36,164.18Zm21.47,102.5c.41-.65,1.48-1.59,1.51-2.55a2.42,2.42,0,1,0-4.79.4C297.76,266,298.75,266.63,300.83,266.68Zm-22.41-2.25c-.28-2.21-1.42-2.94-2.59-2.57-.93.29-2.17,1.49-2.2,2.33a2.09,2.09,0,0,0,3,2.22C277.48,266.09,278,264.88,278.42,264.43Zm11.5,2.22c.45-.69,1.42-1.57,1.61-2.6.25-1.38-.68-2.36-2.21-2.32-1.8,0-3.05.78-2.78,2.84C286.74,266.12,287.93,266.49,289.92,266.65Z"/><path class="cls-2" d="M84.84,363.21c1.53-14.52,7.14-19.44,22.72-19.46,50.34-.08,100.68-.32,151,.12C270.64,344,280,342,283.77,329a3.24,3.24,0,0,1,3.71-2.31c-1.68,14.8-8.94,21.44-23.88,21.47q-62.27.1-124.54,0c-14.86,0-14.86,0-14.94,14.86-.06,11.74-5.68,20.41-14.93,23a22.53,22.53,0,0,1-25.69-10C80.9,372,81.24,367.62,81,363.2l4-.18c-.24,3.18-.34,6.31,1.24,9.26,3.58,6.7,8.92,10.56,16.72,10.44,7.49-.11,13.61-4.07,15.45-10.58,2.13-7.49,3.79-15.89-.87-23.51-.2-.32-1.74.18-2.66.29-16.75-2.42-23,1-25.73,14Z"/><path class="cls-2" d="M135.1,86.41c12.86,15.09,4.5,32.35-10,36-8.77,2.18-15.27-1-21.31-6.59a5.25,5.25,0,0,0,4.39-2.7c8.12,4.79,16.19,6.44,23.31-1.53,6.52-7.3,4-14.63-.83-21.69Z"/><path class="cls-2" d="M277.52,71.68c-2.52-.23-5-.45-7.56-.69-3-.3-4.48-1.7-4.48-4.93s.38-5.71,4.21-6.16c3.33-.39,7.52.29,7.36-5.1-.13-4.49,1.23-7.38,6.45-7.19,6.25.23,4.53,4.78,4.82,8.32.11,1.26.34,2.51.51,3.77C284.32,63,280.29,66.74,277.52,71.68Z"/><path class="cls-2" d="M279.2,283.94c-4.11-.18-9.65,1.79-9.49-5.41.15-6.8,5.51-5.51,9.71-5.52a29.92,29.92,0,0,1,5.48,1C284.85,278.38,279.75,279.86,279.2,283.94Z"/><path class="cls-2" d="M307.09,150.92c.15,5-2.39,5.55-5,5.53-3.28,0-5.74-1.52-5.21-5.2.37-2.68,2.15-4.88,5.12-4.69A5.23,5.23,0,0,1,307.09,150.92Z"/><path class="cls-1" d="M89.17,363c1.65,8.34,4.82,16.07,15,14.57,10-1.47,11.27-9.64,10.81-18.19-.18-3.46-.06-6.95-.08-10.42.92-.11,2.46-.61,2.66-.29,4.66,7.62,3,16,.87,23.51-1.84,6.51-8,10.47-15.45,10.58-7.8.12-13.14-3.74-16.72-10.44-1.58-2.95-1.48-6.08-1.24-9.26l-.18.19Z"/><path class="cls-1" d="M108.19,113.07c-4.42-7.65-6.3-15.48.89-22.36,6.65-6.39,14.19-5.43,21.59-.86,4.87,7.06,7.35,14.39.83,21.69C124.38,119.51,116.31,117.86,108.19,113.07Z"/><path class="cls-1" d="M291.31,64.81h5.17C294.74,67.21,293,66.37,291.31,64.81Z"/><path class="cls-1" d="M285.87,193.8l-.68.69a5.78,5.78,0,0,1-.6-1.29c0-.16.38-.42.6-.63Z"/></svg>