<svg id="Layer_1" data-name="Layer 1" xmlns="http://www.w3.org/2000/svg" viewBox="0 0 400 400"><defs><style>.cls-1{fill:#fff;}.cls-2{fill:#c21f50;}</style></defs><path class="cls-1" d="M200.82,259.38c-17.68,3.87-35.63,1.91-53.33,1.28-15.93-.56-28.17,3.87-39.56,14.91-15.86,15.37-33.18,29.23-49.4,44.24-5.3,4.9-10.06,5.22-16,2.41-17-8-26.46-21.47-28.35-40.05-2.2-21.64,1.6-42.76,7.45-63.41,6.78-23.95,15.71-47.32,21.68-71.45,5-20.18,18.11-35.33,28.8-51.73,12.38-19,58.28-23.78,77.62-9.59l-8.39,15.69c-6.48-3.6-10.16-11.85-19.58-9.62,13,6.47,19.92,18.28,28.87,27.93,13.36,14.43,31,17.86,49.94,10.18,5.18-2.09,11.82-1.4,17.67-.82,18.51,1.82,26.94-11.95,35.58-23.82,4.58-6.29-5.73-11.84-6-18.74,11.49-11.37,25-12.79,39.88-8.69,11.24,3.09,21.76,7.72,32.21,12.77,6.5,3.14,8.85,8.58,10.73,14.72q-16.14-6.09-32.28-12.18c-14.24-5.36-25.86-2-35.45,9.92C257,110.67,250.39,117.45,244,124.4c-5.48,6-12.25,8.87-20.47,9.1-23.46.67-23.62.8-23.53,23.95C200.14,191.43,200.54,225.4,200.82,259.38Zm-38.73-57.13-.07-.32c-.52-3.78-1.58-7.58-1.43-11.33.28-7.27-4-7.45-9.46-7.55-6-.12-9.69,1.4-8.56,8.14,1.7,10.14-3.13,13-12.38,12-6.06-.65-8.64,2.35-8.59,8.74s1.63,10.08,8.76,9.78c2.57-.11,5.56-1,8.23,2-2.71,3.32-5.42,6.66-8,9.88,2.91,5.27,6.91,7.57,12.14,7.91a28,28,0,0,0,17.17.14c10.94-2.37,18.13-8.63,20.54-19.84.44-1.56.88-3.12,1.31-4.68l0,.18c.83-5,.76-9.83-1.24-14.55-3.93-13.18-6.24-13.89-15.45-4.62A32,32,0,0,0,162.09,202.25ZM83.86,172.54v-.22c-6.72,5.8-.07,7.5,3.25,9.47,17,10.08,39.05,3.68,48.65-13.7,5.1-9.24,4.11-18.87,2.38-28.56-1.65-9.26-9.54-10.16-16.69-13.25-15.82-6.84-29.59-5.67-39.08,5.39C72.11,143.61,72.63,157.91,83.86,172.54Zm90-28.43c-6.61-.38-9,3.85-9.77,8.23-.88,5,3.15,7.48,7.61,7.9,4.93.47,9.36-1.19,9.42-7C181.15,148.21,178.44,144.72,173.85,144.11Z"/><path class="cls-2" d="M200.82,259.38c-.28-34-.68-67.95-.82-101.93-.09-23.15.07-23.28,23.53-23.95,8.22-.23,15-3.13,20.47-9.1,6.39-7,13-13.73,18.93-21.07,9.59-11.92,21.21-15.28,35.45-9.92q16.14,6.06,32.28,12.18c20.21,13.67,23.59,36.58,30.28,57.19,9.6,29.53,20,59,24.06,90,3.15,24.06,2.95,47.3-18.74,64-12.71,9.78-18,9.22-29.9-1.36-17.27-15.31-34.82-30.32-51.94-45.8-7.24-6.54-15.26-9.18-24.88-9-13.66.22-27.33-.26-41-.45.56.56,1.68,1.47,1.59,1.6-.93,1.45-2.13,1.5-3.12.08-.1-.15,1-1.1,1.48-1.68C212.55,261.22,206.63,261.7,200.82,259.38ZM302.66,116.11c-2.45-4.89-5.8-4.31-9.5-1.55l0-.25c-7.24-3.38-10.06,1.49-11.84,6.9-2.8,8.48,1,13.78,9.19,16.33,6.87,5,12.48,1.25,15.38-4.23S310.5,120.53,302.66,116.11Zm8.68,45.1c7.2,7.77,14.36,4.94,19.32-1.78,4.16-5.62,6.09-13-2.86-17.5-5.77-8.1-12.51-5.55-18.34-.76C302.88,146.58,304.06,155.16,311.34,161.21Zm-47.57,1.4c7.57,6,13.57,1.62,16.87-4.45,2.85-5.26,4.94-12.67-3.77-16.37-3.31-7.34-9.47-4.74-14.41-3.33-5.6,1.59-7.62,6.84-8.16,12.35C253.61,157.74,258.51,160.36,263.77,162.61ZM291,188.43c7.07,5.23,12.23.72,15-4.65,2.84-5.52,4.63-12.63-3.46-16.73-3.53-7.13-9.7-4.09-14.41-2.82-5.51,1.48-7.28,6.77-7.65,12.34C279.94,184.19,285.2,186.5,291,188.43Zm-9.29,23.32c.08-19.88-15.36-35.79-34.85-35.91-19.65-.12-35.94,15.61-36.14,34.89-.2,19.85,16,35.93,36.21,35.85A34.92,34.92,0,0,0,281.69,211.75Zm-47.54-59.84c-.44-4.59-2.82-7.36-7.29-7.56s-7.33,2.43-7.65,6.84c-.34,4.69,2.94,7.22,7.07,7.39S233.46,156.31,234.15,151.91Z"/><path class="cls-2" d="M198.7,127.38c-21.67,6.85-40.39.25-51.55-18.15-4.16-6.87,4.81-23.67,13.32-24,10.81-.5,21.65,0,32.48-.17,4.93-.08,6.36,3.49,8.16,6.86-14.29,1.93-21.61,11.38-17.81,22.82C185.8,122.21,192.49,124.46,198.7,127.38Z"/><path class="cls-1" d="M198.7,127.38c-6.21-2.92-12.9-5.17-15.4-12.69-3.8-11.44,3.52-20.89,17.81-22.82,9.7,1.5,14.73,7.67,15.16,17C216.82,120.61,207.86,124.3,198.7,127.38Z"/><path class="cls-1" d="M218.5,260.14c-.52.58-1.58,1.53-1.48,1.68,1,1.42,2.19,1.37,3.12-.08.09-.13-1-1-1.59-1.6Z"/><path class="cls-2" d="M83.86,172.54c-11.23-14.63-11.75-28.93-1.49-40.87,9.49-11.06,23.26-12.23,39.08-5.39,7.15,3.09,15,4,16.69,13.25,1.73,9.69,2.72,19.32-2.38,28.56-9.6,17.38-31.67,23.78-48.65,13.7-3.32-2-10-3.67-3.25-9.47,13.13,9.94,27,11.11,37.73,3.19s15.55-21.73,11.63-33.4c-2.81-8.36-6.87-12.71-15.14-5.31-2.7-4.42-7.33-5.23-11.79-5.72-10.09-1.11-20.4,6.94-22,17C82.7,158.72,88,163.6,98,166.29c9.28,2.47,15.51-1.5,22-6.5-5.49,11.14-12,14.33-23.55,9.58C90.6,167,87.3,168.46,83.86,172.54Z"/><path class="cls-2" d="M142.7,241.54c-5.23-.34-9.23-2.64-12.14-7.91,2.61-3.22,5.32-6.56,8-9.88-2.67-3.08-5.66-2.15-8.23-2-7.13.3-8.72-3.39-8.76-9.78s2.53-9.39,8.59-8.74c9.25,1,14.08-1.86,12.38-12-1.13-6.74,2.6-8.26,8.56-8.14,5.42.1,9.74.28,9.46,7.55-.15,3.75.91,7.55,1.42,11.33C149.22,212,137.49,222.66,142.7,241.54Z"/><path class="cls-2" d="M159.87,241.68a8.7,8.7,0,0,0,.18-1c1-19.45,1-19.45,20.36-18.82C178,233.05,170.81,239.31,159.87,241.68Z"/><path class="cls-2" d="M173.85,144.11c4.59.61,7.3,4.1,7.26,9.09-.06,5.85-4.49,7.51-9.42,7-4.46-.42-8.49-2.86-7.61-7.9C164.84,148,167.24,143.73,173.85,144.11Z"/><path class="cls-2" d="M180.51,202.79l-18.42-.54a32,32,0,0,1,3-4.08C174.27,188.9,176.58,189.61,180.51,202.79Z"/><path class="cls-2" d="M181.72,217.16l0,.18Z"/><path class="cls-1" d="M281.69,211.75a34.92,34.92,0,0,1-34.78,34.83c-20.17.08-36.41-16-36.21-35.85.2-19.28,16.49-35,36.14-34.89C266.33,176,281.77,191.87,281.69,211.75ZM260.9,198.54c-5.43-9.5-14.53-7.82-22.22-5.58A16,16,0,0,0,227,206.21c-1.21,9.85-.25,12.75,5.22,16.12-3.37-17.87.26-25.58,12.69-27.39,5.72-.83,10.18,4.73,16,2.86,7.65,7.51,8,16.21,2.45,24.59-6.19,9.4-15.81,11.27-25.7,7.06-5.83-2.48-8.78-2.2-10.78,3.71,14.59,11.09,32.27,9.79,42.42-2.74,9.66-11.92,8.85-28.55-1.88-38.31C264.22,193.22,262.47,195.79,260.9,198.54Z"/><path class="cls-1" d="M291,188.43c-5.78-1.93-11-4.24-10.54-11.86.37-5.57,2.14-10.86,7.65-12.34,4.71-1.27,10.88-4.31,14.41,2.82-2.48-.18-4.41-3.46-7.64-1.21C300.57,174.56,302.51,182.75,291,188.43Z"/><path class="cls-1" d="M263.77,162.61c-5.26-2.25-10.16-4.87-9.47-11.8.54-5.51,2.56-10.76,8.16-12.35,4.94-1.41,11.1-4,14.4,3.33-2.56-.31-4.75-3.39-7.73-1.12C276.31,152.75,275,157.92,263.77,162.61Z"/><path class="cls-1" d="M311.34,161.21c-7.28-6.05-8.46-14.63-1.88-20,5.83-4.79,12.57-7.34,18.34.76-2.61-.33-4.68-3.35-8.27-1.26,4.43,5.32,7,11.2,2.82,17.72C319.68,162.6,315.7,163,311.34,161.21Z"/><path class="cls-1" d="M290.54,137.54c-8.2-2.55-12-7.85-9.19-16.33,1.78-5.41,4.6-10.28,11.84-6.9C302.24,125,301.58,130.78,290.54,137.54Z"/><path class="cls-1" d="M302.66,116.11c-3.08-1-6-2.86-9.5-1.55C296.86,111.8,300.21,111.22,302.66,116.11Z"/><path class="cls-1" d="M118.08,136.8l-.16-.23c-.06,1.09-.12,2.18-.19,3.27l0-.71,3.78,12.27c.92,3.12-.58,5.78-1.56,8.46-6.43,4.93-12.66,8.9-21.94,6.43C88,163.6,82.7,158.72,84.34,148.1c1.55-10.08,11.86-18.13,22-17C110.75,131.57,115.38,132.38,118.08,136.8Z"/><path class="cls-2" d="M121.53,151.4l-3.78-12.27C123.66,141.78,126.68,145.33,121.53,151.4Z"/><path class="cls-2" d="M117.73,139.84c.07-1.09.13-2.18.19-3.27C117.86,137.66,117.8,138.75,117.73,139.84Z"/><path class="cls-2" d="M260.9,198.54v-.74c-5.83,1.87-10.29-3.69-16-2.86-12.43,1.81-16.06,9.52-12.69,27.39-5.47-3.37-6.43-6.27-5.22-16.12A16,16,0,0,1,238.68,193C246.37,190.72,255.47,189,260.9,198.54Z"/></svg>