<svg id="Layer_1" data-name="Layer 1" xmlns="http://www.w3.org/2000/svg" viewBox="0 0 400 400"><defs><style>.cls-1{fill:#fff;}.cls-2{fill:#c21f50;}</style></defs><path class="cls-1" d="M360.78,122.39l-.16-.23a6.22,6.22,0,0,0,3.67,5.91c1.18,6.53,4.65,12.65,3.46,19.6a25,25,0,0,0-1.43,4.33c-4.25,30.47-23.8,45.94-54.22,42.92-2.88-.29-6-2.21-9.53,1.63,2.77,14.74-4.7,27.21-12.89,39.44-20.28,10.67-39.67,10.75-57.75-4.85-6.61-13.64-12.13-27.3-5.42-42.76,5-11.45,14.79-17.7,28.23-25.43-17.84,0-31.87,0-45.91,0-2.67,0-5.46.13-6.22,3.67-2.16,10.12-5.47,20.4,4.22,28.79-1.65-.11-5.24-.34-3.89,1.48,5.4,7.28.63,12.57-2.31,18.38q1,8.52,1.91,17H168.87c-1.13-4.81,2.88-7.49,4.72-11,6.43-12.12,4.47-34-3.72-40.39-17.39-13.65-38.91-14.65-53-2.47a33.54,33.54,0,0,0-6.33,43.11c4.57,7.26,4.17,10.58-1.33,18.21-7.33,10.16-9.52,24-13.77,36.4-2,5.82-3.38,11.87-5.53,17.64-7.22,19.39-26.21,30.5-46.91,27.7-19.7-2.67-36.8-18.17-36.3-37.49,1.36-52.47,9.49-104,27.09-153.76l1.62,1.13c-5.46,17.94-4,34.47,9.89,49.48,6.65-6.8,14.17-11.77,19.32-21-8.71,1-16.45,2.41-19.24-7.29l.12-7.62C49.51,132.12,60,139,68,138c.85-7.95-6.45-18.32,6.79-22.17l8.19.06c10.92,2.48,6.22,11.9,7.18,16.95l20.94-17.52a48,48,0,0,0-4.79-4.37C83.08,95.13,59,100.52,37,126.4L35.39,125c4.91-16.22,15.54-29,25.93-41.74C66,77.53,95,75.65,99.61,81.85c8.25,11.22,19.06,9.58,30,9.62,2.27,0,4.55,0,7.23,0,.71,23.17-3,46,2.16,68.51,7.11,2.13,14.19,4.65,21.68,1.2-7.42,2.62-14.23-3.93-21.66-1.15q.15-26.44.28-52.9c.07-16.09,2.2-18.39,17.77-18.43,23.53-.06,47.06.3,70.58-.12,14.17-.26,28.47-5,41.8,4.87,2.72,2,8.93-.21,13.37-1.21,3.09-.69,5.64-3,3.54-6.71-2.43-4.31-5.31-3-8-.09-10.13-2-14.18-.51-13.42,12.46,1.24,21.38,4.76,43.4-3.62,64.71,4.48,2.84,10.06,2.17,15.21,3.3l16.49,10.18,59.08-58.74ZM74.68,142.88c-1-.66-1.67-3.11-3.22-1.39s.49,2.37,1.68,3.08c.37,2.05.74,4.11,1.14,6.35,3.23-1.42,5.12-3.22,6.23-6.22Zm14.85,17.61c2-3.91,4.65-.41,6.94-.43,5.2,0,11.32,2.39,13.85-4.61,1.87-5.17,2.42-11.14-1.35-15.44-4.51-5.14-10.88-2.87-16.17-1.06-8.23,2.81-8.19,10.06-7.68,17.17-6.49-3-11.83-1.7-15.31,4.65-3,5.53-5.06,12.08-1,17.27,3.82,4.85,10.49,4.62,16,2.41C95.42,176.2,87.51,167.07,89.53,160.49Zm78.63-3.29,2,3.28c27.51,0,55,.27,82.54-.18,7.93-.13,10.8-6.1,10.72-13.68-.14-12.7,0-25.4,0-38.1,0-7.17,1.79-15.73-7.65-18.37-8.74-2.46-17.35-3.66-24.59,5.47s-15.95,16.66-24.25,24.68C194.1,132.7,181.09,144.91,168.16,157.2Zm95.16,81c19.71-.29,34.58-15.37,34.19-34.68a34.26,34.26,0,1,0-68.5,1.34C229.48,224,244.36,238.43,263.32,238.16Zm86.09-77c6.81-.67,12.7-2.79,12.36-10.68-.29-6.51-3.32-11.92-11-12.4-8.24-.52-12.28,5-12.93,11.74C337.16,157,342.68,160.31,349.41,161.11Zm-28,4.62c-6.93,1.32-11.52,5.58-11.55,13.09,0,7.71,5.82,10.82,12.26,10.7,6-.11,11.35-3.24,11.27-10.49C333.29,171.59,329.48,166.86,321.39,165.73ZM127.83,107.25c-.69-3.52-.7-8.55-6.45-8.65-6.7-.11-6.4,5.16-6.42,9.91,0,4.42,0,9.32,5.83,9.3C126.88,117.78,127.71,112.83,127.83,107.25Z"/><path class="cls-2" d="M289.68,236c8.19-12.23,15.66-24.7,12.89-39.44,3.53-3.84,6.65-1.92,9.53-1.63,30.42,3,50-12.45,54.22-42.92a25,25,0,0,1,1.43-4.33c11.11,4.12,7.72,15.22,9.48,22.77a672.86,672.86,0,0,1,15.92,103.5c1.93,26.38-15.48,43.45-33.63,46.78-24.23,4.45-42.53-7.27-51.21-31.63C302,271.42,298.13,252.9,289.68,236Z"/><path class="cls-2" d="M276.58,165.91c-5.15-1.13-10.73-.46-15.21-3.3,8.38-21.31,4.86-43.33,3.62-64.71-.76-13,3.29-14.42,13.42-12.46,4.71,6,10.47,5.34,16.58,2.37,15.27-2.34,30.53-1.41,45.78.25,9.46,9.82,18.41,19.93,20,34.33l-8.63-5c-19.73-23.56-42.11-15.81-64.27-4.56-3-5.1.28-12.54-7.38-13.89a5.69,5.69,0,0,0-6.48,3.7c-3.49,8.61,1.42,14.18,8,18.64C273.8,135.91,270.14,150.36,276.58,165.91Z"/><path class="cls-2" d="M206.83,195.44c-9.69-8.39-6.38-18.67-4.22-28.79.76-3.54,3.55-3.66,6.22-3.67,14-.06,28.07,0,45.91,0-13.44,7.73-23.25,14-28.23,25.43-6.71,15.46-1.19,29.12,5.42,42.76-9.67,3.45-19.54,2.09-29.39,1.2q-.94-8.52-1.9-17C213.51,209.82,214.81,205.65,206.83,195.44Z"/><path class="cls-1" d="M158.27,184.36c12.94,4.54,11.56,15.36,10.33,25.32-1.44,11.72-9,19.5-20,22.77-11.24,3.33-22,2.13-29.89-8.13l6.21-4.5c11,8,21.72,7.92,30.14-.14,8-7.63,8.19-18.5.61-30.26Z"/><path class="cls-2" d="M124.91,219.82l-6.21,4.5c-10.66-11.59-11.89-25.18-3.38-37.4,8-11.47,22.36-15.56,35.7-10.28,3.71,1.47,7.12,3,7.25,7.73l-2.61,5-.2.16c-11.31-9.81-23-9.92-32.08-.31-8.27,8.73-7.75,20.16,1.39,30.31Z"/><path class="cls-1" d="M340.77,88.06c-15.25-1.66-30.51-2.59-45.78-.25C303.94,75,331,75.18,340.77,88.06Z"/><path class="cls-1" d="M33.81,130.32q.8-2.65,1.58-5.32L37,126.4c-.53,1.68-1.06,3.37-1.58,5Z"/><path class="cls-2" d="M364.29,128.07a6.22,6.22,0,0,1-3.67-5.91C363.53,123.09,364.26,125.36,364.29,128.07Z"/><path class="cls-2" d="M349.41,161.11c-6.73-.8-12.25-4.08-11.55-11.34.65-6.74,4.69-12.26,12.93-11.74,7.66.48,10.69,5.89,11,12.4C362.11,158.32,356.22,160.44,349.41,161.11Z"/><path class="cls-2" d="M321.39,165.73c8.09,1.13,11.9,5.86,12,13.3.08,7.25-5.31,10.38-11.27,10.49-6.44.12-12.29-3-12.26-10.7C309.87,171.31,314.46,167.05,321.39,165.73Z"/><path class="cls-2" d="M127.83,107.25c-.12,5.58-1,10.53-7,10.56-5.86,0-5.85-4.88-5.83-9.3,0-4.75-.28-10,6.42-9.91C127.13,98.7,127.14,103.73,127.83,107.25Z"/><path class="cls-2" d="M45.4,152.69c-4.51,1.8-8,.25-7.63-4.48.31-3.86,3.94-5,7.75-3.15Z"/><path class="cls-2" d="M74.77,115.81c-1.83-4.79.36-7.92,4.89-7.52,3.49.3,5.54,3.57,3.31,7.58Z"/><path class="cls-1" d="M155.46,189.58l-30.68,30c-9.15-10.15-9.67-21.58-1.4-30.31C132.49,179.66,144.15,179.77,155.46,189.58Z"/><path class="cls-1" d="M333.85,118.93c-.26,8.38-4.08,13.4-11.69,13.75s-12.11-4.4-12.64-11.93c-.57-8,4.18-12.4,11.59-12.76S333.21,111.84,333.85,118.93Z"/><path class="cls-1" d="M305.8,149.22c-1.55,8-5.82,12.24-13.57,11.58-8-.68-11.35-6.23-10.93-13.45.47-7.77,5.7-11.48,13.31-10.78S305.88,142.1,305.8,149.22Z"/><path class="cls-1" d="M293.27,203.5c.21,16.91-12.54,30.35-29.24,30.85-17,.51-30.57-13-30.59-30.57a29.46,29.46,0,0,1,29.17-29.48C279.66,174.09,293.08,186.86,293.27,203.5ZM249,220.1c12.71,7.76,22.85,6.88,30.68-2,6.9-7.83,6.5-18.87-1.05-27.56Z"/><path class="cls-1" d="M89.6,160.61c-3.65.5-4.3-2-4.79-4.73C89.73,154.09,90.7,156.31,89.6,160.61Z"/></svg>