<svg id="Layer_1" data-name="Layer 1" xmlns="http://www.w3.org/2000/svg" viewBox="0 0 400 400"><defs><style>.cls-1{fill:#fff;}.cls-2{fill:#c21f50;}</style></defs><path class="cls-1" d="M199.76,299H58.35c-29.81,0-47.7-17.78-47.71-47.39,0-33.44.56-66.88-.26-100.29-.37-15.4,6.06-27.69,14-39.39,5.56-8.19,15.33-10.05,24.82-10.73,12.89-.93,25.69,1.66,38.45,1.76,75.09.6,150.18.47,225.26.48,10.95,0,21.9-.64,32.85-.88,26.13-.56,43.07,21.22,43.43,43.27.61,36.71.44,73.45.11,110.16-.22,24.14-19.46,42.69-44.05,42.79-48.51.18-97,.05-145.52.05ZM366.33,139.39a2.6,2.6,0,0,0-3.37-1.62c-6-3.38-11.35-1.94-13.89,4.12-2.37,5.68-2.16,12.13,4.53,15.37,4.63,2.23,9.92,3.69,12.66-3.19,4.31-3.23,5.13-7,1.65-11.33ZM328.22,258.8a24.41,24.41,0,0,1,2.34-3.23c2.36-2.39,2.33-5,.38-7.35a3.93,3.93,0,0,0-5.86-.52c-2.34,1.87-4.4,4.72-1.35,6.66s-1.23,4.47,1.45,5.65c2.32.75,4.65,2.23,7,0C331.22,258,329.78,258.18,328.22,258.8Zm-.13-19.94c1.32-1.69,3.11-3.2,3.87-5.11a4.62,4.62,0,0,0-2.42-6.2c-2.48-1.3-4.36-.17-5.72,1.63-3.57,4.73,2.15,7.54,2.6,11.48,1.93.4,3.91,1.48,5.68-.42C331.23,238.27,329.65,238.6,328.09,238.86ZM55,245.9H68.37c1-3.56,1.16-6.41.2-9.28a10.85,10.85,0,0,0-7.17-.24c-2.41-.25-4.82-.49-7.23-.77-7.57-.85-10.81,1.86-7.69,10.29Zm67,31.31c-4.89-.29-9.81-.34-14.66-.94-7.16-.88-8.61,2.48-8.59,9,0,9.88,7,5.77,11.58,6.57h23.44C137.13,276.39,135.77,274.77,122,277.21ZM64.18,186.83c-2.06-1.65-1.48-4-1.42-6.08.11-3.65-.26-6.32-5-6.42s-6.5,1.63-5.95,6.22c.66,5.47-2.78,6.32-7.12,6.12s-5.47,1.89-5.5,6c0,4.59,2.12,5.58,6,5.53a52.31,52.31,0,0,1,6.44.68V209c12.33,5,11.48-3.63,11.85-10.49l11-1c1-3.77,1.56-7.1-.5-10.74Zm198.26-49.17q-81.66-.09-163.32-.22c-6.53,0-10.41,2.36-10.4,9.52q.09,56.22,0,112.44c0,5.73,3,8.91,8.42,8.94,12.55.07,25.11-.36,37.66-.58,18.29,1.74,36.62.59,54.93.68,35.84.17,71.69,0,107.53.07,8.16,0,11.78-3,11.71-11.67-.32-36.39-.22-72.79-.09-109.18,0-6.78-2.75-10.46-9.53-10.45C287,137.23,274.74,137.5,262.44,137.66Zm-60.58-20.43H146.38c-1.46,5.69,2,7.31,6.67,7.32q47.65.14,95.31,0c4.69,0,7.87-1.88,7-8.08-14.62,0-29.1,0-43.57,0C207.81,116.51,203.25,113.8,201.86,117.23ZM43.39,128.86c6.72,4.12,12.07,9.75,12,18.63,0,8.6-5.62,14-12.7,18.9C55,164,61.84,156.33,61.26,146.4,60.65,135.93,53.48,129.08,43.39,128.86Zm315.81-.36c8.62,4.49,13.6,10.31,13.43,19.21s-6.19,14.22-14.24,19.19c14.09-2.7,20.52-9.92,19.86-21C377.66,135.81,370.83,129.06,359.2,128.5Zm-7,82.72c.07-4.74-1.94-8-6.85-8.41-5.14-.47-7.37,2.92-7.86,7.35-.57,5.1,2.72,7.53,7.28,7.69C348.94,218,352,216,352.18,211.22Zm-7.73-24.43c4.2-.26,7.74-1.31,7.71-6.41,0-4.61-1.89-8.09-7-8.35s-7.29,3.17-7.74,7.65C337,184.63,340.3,186.23,344.45,186.79Zm-303.24-31c5.32-.19,8.38-3,8.76-7.92.43-5.43-2.62-9-8-9.12-4.85-.14-8.27,2.59-8.58,7.79C33,152,36.07,154.94,41.21,155.76Zm319,31.36c-5.06.7-7.57,3.89-7.37,8.35.19,4.31,3.23,6.84,7.71,6.57,4.3-.27,7.42-2.58,7.21-7.12S364.78,187.53,360.18,187.12Zm-30.61,15c3.88-.22,7.18-2.22,7.32-6.64s-2.2-8.05-7.14-8.23-7.59,3-7.77,7.61S324.72,201.67,329.57,202.13ZM278,288.46c8-.41,8-.41,6.63-7.47C281.9,282.77,279.45,284.59,278,288.46Zm-73.69,4.68c-3.33-3.5-6-2.48-10.46-.3C198,293.63,200.47,295,204.29,293.14Zm117.06-8.78c4.65,1.36,7,2.09,10.26-.71C328.42,281.8,326.09,281.68,321.35,284.36Zm-23,8.71c2.44.85,4.89,1.91,7.84,0C303.23,290.45,300.77,292.62,298.32,293.07Zm-31.83-.55c-3.42-1-5.52-.8-8,.58C261.14,294.28,263.26,294.93,266.49,292.52Zm-198.57-8c4,1,6.34,1.77,9-.49C74,281.71,71.73,281.74,67.92,284.5Zm111.64-1.2c-.53-.3-1.17-.93-1.83-.95-1.25-.05-2.13.73-1.69,2a2.41,2.41,0,0,0,1.7,1.36C179.05,285.82,179.51,284.79,179.56,283.3Zm82.35-1c-1.47.17-2.3.77-1.93,2a2.22,2.22,0,0,0,1.6,1.27,1.5,1.5,0,0,0,1.65-2C263.09,283.08,262.28,282.68,261.91,282.34Zm-89.1,11.29c4.93.05,7.26,1.49,9.47-.74C179.69,290.9,177.54,292.2,172.81,293.63Zm112.92-.57c-2.41-2.34-4.61-1.05-7.22.16C281.18,294,283.45,295.11,285.73,293.06ZM204.59,115.51c.69-4-1.78-4-4.25-3.76-.27,0-.49.65-.91,1.25Z"/><path class="cls-2" d="M140.61,262.09c5.17.25,10.33.71,15.5.72,45.73.07,91.46-.12,137.19.23,7.73,0,9.74-2.51,9.66-9.86q-.49-50.52-.06-101c.06-7.24-2.26-9.69-9.41-9.38-10.62.47-21.27.12-32.54.12.67-2.37,1.08-3.79,1.49-5.22,12.3-.16,24.6-.43,36.9-.45,6.78,0,9.56,3.67,9.53,10.45-.13,36.39-.23,72.79.09,109.18.07,8.67-3.55,11.7-11.71,11.67-35.84-.11-71.69.1-107.53-.07-18.31-.09-36.64,1.06-54.93-.68.57-1.58,1.14-3.16,1.69-4.74Z"/><path class="cls-2" d="M51.59,198.91a52.31,52.31,0,0,0-6.44-.68c-3.87.05-6-.94-6-5.53,0-4.14,1.29-6.23,5.5-6s7.78-.65,7.12-6.12c-.55-4.59,1.28-6.32,5.95-6.22s5.14,2.77,5,6.42c-.06,2.09-.64,4.43,1.43,6.08C58.44,189.23,55,194.1,51.59,198.91Zm-7.88-6.17c1.84,1,3.17,1.54,4.31-.19C46.77,191.46,45.56,191.65,43.71,192.74Z"/><path class="cls-2" d="M43.39,128.86c10.09.22,17.26,7.07,17.87,17.54.58,9.93-6.28,17.58-18.56,20,7.08-4.93,12.65-10.3,12.7-18.9C55.46,138.61,50.11,133,43.39,128.86Z"/><path class="cls-2" d="M122,277.21c-2.25,6.18-9.28,8.55-11.67,14.62-4.6-.8-11.55,3.31-11.58-6.57,0-6.51,1.43-9.87,8.59-9C112.15,276.87,117.07,276.92,122,277.21Z"/><path class="cls-2" d="M352.18,211.22c-.15,4.77-3.24,6.77-7.43,6.63-4.56-.16-7.85-2.59-7.28-7.69.49-4.43,2.72-7.82,7.86-7.35C350.24,203.26,352.25,206.48,352.18,211.22Z"/><path class="cls-2" d="M344.45,186.79c-4.15-.56-7.49-2.16-7-7.11.45-4.48,2.62-7.91,7.74-7.65s6.93,3.74,7,8.35C352.19,185.48,348.65,186.53,344.45,186.79Z"/><path class="cls-2" d="M55,245.9h-8.5c-3.12-8.43.12-11.14,7.69-10.29,2.41.28,4.82.52,7.2.78C59.15,239.51,54.71,241.13,55,245.9Z"/><path class="cls-2" d="M366.26,154.07c-2.74,6.88-8,5.42-12.66,3.19-6.69-3.24-6.9-9.69-4.53-15.37,2.54-6.06,7.84-7.5,13.89-4.12l.14-.17c-4.19.55-8.89-.5-11.74,4.07-2.44,3.91-2.56,7.87.29,11.41,4.39,5.44,9.63,3.53,14.76,1.09Z"/><path class="cls-2" d="M326.42,240.66c-.45-3.94-6.17-6.75-2.6-11.48,1.36-1.8,3.24-2.93,5.72-1.63a4.62,4.62,0,0,1,2.42,6.2c-.76,1.91-2.55,3.42-3.87,5.11Z"/><path class="cls-2" d="M325.18,260c-2.68-1.18,1.54-3.75-1.45-5.65s-1-4.79,1.35-6.66a3.93,3.93,0,0,1,5.86.52c1.95,2.33,2,5-.38,7.35a23.48,23.48,0,0,0-2.33,3.23Z"/><path class="cls-2" d="M367.91,142.74c3.48,4.37,2.66,8.1-1.65,11.33l.15.1a20.92,20.92,0,0,0,1.66-11.6Z"/><path class="cls-2" d="M366.33,139.39l1.58,3.35.16-.17-1.64-3.33Z"/><path class="cls-2" d="M363,137.77a2.6,2.6,0,0,1,3.37,1.62l.1-.15a2.87,2.87,0,0,1-3.33-1.64Z"/><path class="cls-1" d="M140.61,262.09l-4.13.93c-11.76,0-23.54-.35-35.31-.06-5.22.12-7.26-1.3-7.23-6.84.21-35.06.14-70.12.12-105.18,0-4.75.2-8.28,6.84-8.25,51.49.23,103,.12,154.48.14.46,0,.91.43,1.55.76.09,3.22-2.81,4.35-4.58,6.12q-54.54,54.66-109.16,109.22C142.24,259.89,141.47,261,140.61,262.09Z"/><path class="cls-1" d="M43.71,192.74c1.85-1.09,3.06-1.28,4.31-.19C46.88,194.28,45.55,193.79,43.71,192.74Z"/><path class="cls-1" d="M72.48,193.44h-7c.14-.71.15-1.49.33-1.53C67.94,191.42,70.23,190.45,72.48,193.44Z"/><path class="cls-1" d="M57.68,207.26c-2.23-2.38-1.68-4-1-5.85C58.91,202.72,58.17,204.5,57.68,207.26Z"/><path class="cls-1" d="M42.1,141.82c3,.45,5,2.13,5,5.34,0,3.65-2.28,5.62-5.79,5.41s-5.46-2.52-5.09-6.1C36.59,143.2,38.93,142,42.1,141.82Z"/><path class="cls-1" d="M363.1,137.6a2.87,2.87,0,0,0,3.33,1.64l1.64,3.33a20.92,20.92,0,0,1-1.66,11.6c-5.13,2.44-10.37,4.35-14.76-1.09-2.85-3.54-2.73-7.5-.29-11.41C354.21,137.1,358.91,138.15,363.1,137.6Zm1.78,9.47c-.08-3.77-2.43-5.56-5.77-5.61-3.78-.06-6.38,2.09-6.25,6a5.38,5.38,0,0,0,5.87,5.57C362.48,153,365,151.28,364.88,147.07Z"/><path class="cls-2" d="M364.88,147.06c.12,4.22-2.4,6-6.15,6a5.38,5.38,0,0,1-5.87-5.57c-.13-4,2.47-6.11,6.25-6C362.45,141.51,364.8,143.3,364.88,147.06Z"/></svg>