<svg id="Layer_1" data-name="Layer 1" xmlns="http://www.w3.org/2000/svg" viewBox="0 0 400 400"><defs><style>.cls-1{fill:#fff;}.cls-2{fill:#c21f50;}</style></defs><path class="cls-1" d="M224.22,66.06c-4.55,18.42-15,32.13-32.1,40.59a56.45,56.45,0,0,1-32.61,5.29c-9.5-1.17-18.45-4.49-27.69-6.64-15.07-3.49-29.66-9-45-11.07-17.68-2.34-33.07,3.22-46.3,15C29.41,119.06,24.26,132,21.21,146.08c-.27,1.29-.21,2.12.55,2.65L7.64,145.15c1.29.11,1.91-.51,2.39-2.25,1.71-6.1,2.85-12.32,5.43-18.2,9.22-21,25-34.44,46.95-40.56,11.83-3.28,23.76-3,35.73.09,20.79,5.3,41.26,12,62.4,15.84,19.94,3.63,42.11-9.4,49.39-28.36,3.57-9.27,5.4-19,8.15-28.48l11.33,3C227.67,52.83,225.86,59.43,224.22,66.06Z"/><path class="cls-2" d="M31.85,151.55c-2.94-.78-5.87-1.65-8.84-2.32-1.89-.44-2.19-1.34-1.8-3.15,3-14.07,8.2-27,19.26-36.86,13.22-11.77,28.62-17.34,46.31-15,15.38,2,30,7.56,45,11.06,9.24,2.15,18.19,5.47,27.69,6.64a56.39,56.39,0,0,0,32.6-5.29c17.12-8.46,27.56-22.18,32.11-40.6,1.63-6.63,3.45-13.21,5.18-19.82l11.33,3c-2.24,8.37-4.44,16.75-6.73,25.1-8.75,31.84-42.4,53.88-75.23,49.44a91.19,91.19,0,0,1-11.07-2.25c-18-4.75-36.08-9.58-54.14-14.29C73,101.86,53.25,109.13,41.3,126.39,36,134,34.05,142.81,31.85,151.55Z"/><path class="cls-1" d="M374.39,116.35q-145.29,0-290.58,0c-3,0-6.1-.09-9.15,0a3.43,3.43,0,0,1-1.33-.16l-14.57.15h0a6,6,0,0,1-1.18.07l-3.81,0h-.13c-8.33,0-16.67.23-25-.12-7.23-.3-12.22,2.28-15.11,8.89V283.35c1.53,2.75,2.89,5.65,5.91,7.2,2.39-3.36,6.37-4,9.75-5.68,10-4.86,20.19-9.51,30.29-14.25.75-.36,1.61-.65,1.73-1.69l-16.78-.23c-5.21-.08-7.37-2.16-7.46-7.29,0-3-.06-6.09,0-9.13.11-4.7,2.33-7,7-7q16.44-.09,32.89,0c4.69,0,6.8,2.28,7,7,.07,2.07.13,4.13.19,6.2,4.15-.66,7.5-3.36,11.47-4.45.23-7.46,1.64-8.8,9.22-8.8h9.87c6.34-4.13,13.62-6.37,20.21-10,.72-.4,1.68-.42,1.85-1.49-3.65-.07-7.3-.11-11-.21-4.28-.12-6.55-2.31-6.68-6.53-.1-3.41-.09-6.83,0-10.24.11-4.24,2.39-6.54,6.58-6.64,3.53-.08,7.07-.08,10.6,0,3.34.09,5.86,1.81,6,5.16.27,5.31.92,10.7-.65,16,3,0,5.45-1.8,8.12-2.85,1.45-.57,2.7-1.7,4.41-1.47,0-3.41-.06-6.82.07-10.23.15-4.27,2.43-6.49,6.65-6.59,2.8-.07,5.62.13,8.41,0,3.8-.25,6.67,1,8.43,4.46,6-1.13,10.9-4.7,16.4-7,6-2.45,11.69-5.48,17.52-8.25.78-.37,1.57-.7,1.88-1.61a8.94,8.94,0,0,1-2.45-7c.16-3.27,0-6.57.09-9.85.14-3.56,2.15-5.71,5.67-5.87,3.89-.17,7.79-.18,11.68,0,3.5.16,5.6,2.44,6,6.19.21,2.29.18,4.61.26,6.91l11-4.42c.7-7.47,2.09-8.75,9.52-8.75l9.49,0c7.06-4.46,14.95-7.25,22.37-11,2.7-1.35,5.38-2.73,8.07-4.09-.82-4.84-.52-9.72-.28-14.56.16-3.35,2.44-5.28,5.78-5.44,3.76-.18,7.55-.19,11.31,0,4.51.22,5.81,2.15,6.4,8.8,4.17-.64,7.52-3.4,11.52-4.47,1.88-4.27,5.6-4.62,9.55-4.47,9.88-5.4,20.26-9.78,30.46-14.52,4.68-2.18,9-5.33,14.33-6C381.45,116.53,378,116.35,374.39,116.35Zm-279,23.45h.36c10.84,0,11.51.68,11.51,11.68s-.63,11.76-11.77,11.76-11.67-.51-11.67-11.85C83.84,140.4,84.44,139.8,95.41,139.8ZM37,146.12c.17-4,2.5-6.15,6.56-6.31h11c3.54,0,7.08-.06,10.61,0,4.56.1,6.8,2.24,6.94,6.69.1,3.41.12,6.83,0,10.24-.16,4.12-2.32,6.38-6.41,6.44-7.44.13-14.88.11-22.31,0-3.87-.05-6.15-2.24-6.33-6.12C36.86,153.44,36.87,149.77,37,146.12ZM72.1,226.79c-.14,4.49-2.33,6.64-6.88,6.74-3.66.08-7.32,0-11,0s-7.08.06-10.61,0c-4.11-.09-6.43-2.2-6.61-6.23-.17-3.65-.17-7.32,0-11,.18-4,2.55-6.16,6.64-6.2,7.2-.06,14.39-.08,21.58,0,4.53.05,6.72,2.26,6.85,6.77C72.2,220.2,72.2,223.5,72.1,226.79Zm-6.56-28.4c-7.07,0-14.14,0-21.21,0-5.15,0-7.27-2.2-7.35-7.4,0-3-.07-6.1,0-9.14.13-4.52,2.33-6.83,6.78-6.85q21.58-.11,43.17,0c4.38,0,6.51,2.17,6.62,6.49.08,3.41.07,6.83,0,10.24-.1,4.57-2.16,6.62-6.8,6.66C79.69,198.44,72.62,198.39,65.54,198.39Zm29.91,35.16c-11,0-11.61-.58-11.61-11.54,0-11.48.43-11.9,12-11.9,10.76,0,11.45.71,11.45,11.73S106.68,233.55,95.45,233.55Zm21.62-35.16c-11,0-11.77-.8-11.77-11.8S106.1,175,117.61,175c10.47,0,11.42.95,11.42,11.44C129,197.66,128.29,198.39,117.07,198.39Zm18.12-35.16c-1.59,0-3.18,0-4.76,0-10.75,0-11.43-.68-11.43-11.35,0-11.67.42-12.09,12.16-12.09h2.93c6.37,0,8.32,1.94,8.34,8.24,0,2.68,0,5.37,0,8C142.33,161,140.18,163.13,135.19,163.23Zm17.32,35.16c-11.41,0-12-.66-12-12.24v-1.09c0-8.68,1.43-10.1,10.19-10.1h1.82c10.91,0,11.71.81,11.71,11.88C164.18,197.53,163.31,198.39,152.51,198.39Zm13.24-35.15c-11.1,0-11.6-.52-11.6-11.91,0-10.94.59-11.53,11.63-11.53,11.19,0,11.8.62,11.8,11.74S177,163.24,165.75,163.24Zm22,35.15c-11.48,0-12.15-.67-12.15-12.14,0-10.4.94-11.29,11.92-11.29s11.8.82,11.8,11.79C199.33,197.52,198.46,198.39,187.76,198.39Zm13.83-35.15h-.37c-11.48,0-11.92-.44-11.92-12,0-10.8.67-11.49,11.31-11.49,11.65,0,12.13.48,12.13,12.15C212.74,162.42,211.93,163.24,201.59,163.24Zm35.16,0h-.37c-11.49,0-11.93-.44-11.93-12,0-10.81.67-11.49,11.31-11.49,11.65,0,12.13.48,12.13,12.14C247.89,162.42,247.08,163.24,236.75,163.24Zm34.46,0c-11,0-11.6-.58-11.6-11.54,0-11.48.42-11.9,12-11.9,10.75,0,11.44.71,11.44,11.73S282.44,163.24,271.21,163.24Z"/><path class="cls-2" d="M19.45,290.55c2.39-3.36,6.37-4,9.75-5.68,10-4.86,20.19-9.51,30.29-14.25.75-.36,1.61-.65,1.73-1.69,3.77-.09,7.55-.24,11.33-.26,10.46,0,10.46,0,11.48-10.15,4.15-.66,7.5-3.36,11.47-4.45,0,2.92,0,5.85.12,8.77.13,3.53,2.23,5.7,5.71,5.79,3.9.11,7.81.1,11.71,0,3.73-.09,5.81-2.21,5.9-6,.08-3.41-.13-6.84.06-10.24s-1.21-5.84-4.41-7.17c6.34-4.13,13.62-6.37,20.21-10,.72-.4,1.68-.42,1.85-1.49a9,9,0,0,0,4.93-2.48c3,0,5.45-1.8,8.12-2.85,1.45-.57,2.7-1.7,4.41-1.47.49,4.93,2.24,6.53,7.21,6.56,2.92,0,5.83,0,8.75,0,5.62,0,7.44-1.8,7.48-7.31,0-3.89.08-7.77.12-11.66,6-1.13,10.9-4.7,16.4-7,6-2.45,11.69-5.48,17.52-8.25.78-.37,1.57-.7,1.88-1.61,4.54,1.29,9.18.5,13.77.61,5,.12,7-1.9,7.31-6.92.07-1.08.09-2.18.13-3.27l11-4.42c0,2.67,0,5.35.13,8,.24,4.56,2.39,6.59,6.88,6.63q5.1,0,10.2,0c4.28,0,6.5-2.08,6.73-6.41.17-3.28.05-6.56,0-9.84,0-3.52-1.45-6.07-5-7.17,7.06-4.46,14.95-7.25,22.37-11,2.7-1.35,5.38-2.73,8.07-4.09a6.36,6.36,0,0,0,6.33,3.37c3.52-.14,7.05,0,10.57,0,3.9-.08,5.95-2.21,6.07-6.15.09-2.79.16-5.58.24-8.37,4.17-.64,7.52-3.4,11.52-4.47,0,4.26,0,8.53.06,12.8.06,4,2.16,6.16,6,6.19q11.52.1,23,0c3.74,0,5.86-2.2,5.95-5.91s.06-7.32,0-11c-.06-4.37-2.13-6.4-6.55-6.45-6.34-.07-12.68-.09-19-.13,9.88-5.4,20.26-9.78,30.46-14.52,4.68-2.18,9-5.33,14.33-6,2.15,1.15,2.63,3.66,4.25,5.24V284.08c-2.83,4.85-6.44,8.11-12.62,8.11q-174.9-.1-349.81,0A11.81,11.81,0,0,1,19.45,290.55ZM195,268.66q28.92,0,57.85,0c4.71,0,6.71-2,6.76-6.6,0-3.54.06-7.08,0-10.62-.08-3.93-2.19-6.1-6.14-6.11q-58.21,0-116.44,0c-4.07,0-6.15,2.23-6.21,6.43,0,3.17,0,6.34,0,9.51,0,5.59,1.84,7.4,7.45,7.4ZM365,204.41c0-7.57,0-15.14,0-22.7,0-4.65-2-6.69-6.67-6.7q-17.76,0-35.51,0c-4.11,0-6.35,2-6.62,6.16a89.23,89.23,0,0,0,0,11c.23,4,2.27,5.93,5.84,6.21,6.12.49,7.87,2.36,7.89,8.52,0,6.71,0,13.42,0,20.13,0,4.4,2.11,6.47,6.5,6.5q11,.06,22,0c4.6,0,6.58-2.07,6.6-6.76C365.05,219.29,365,211.85,365,204.41Zm-29.32,64.25c7.68,0,15.37,0,23.06,0,4,0,6.15-2.07,6.24-6,.08-3.78.08-7.57,0-11.35s-2.21-5.95-5.92-6q-23.25-.09-46.5,0c-3.87,0-6,2.24-6.06,6.19-.06,3.54,0,7.08,0,10.62.05,4.41,2.09,6.49,6.48,6.51C320.57,268.69,328.14,268.66,335.71,268.66ZM293.35,175H288.6c-5.39,0-7.5,2-7.6,7.41-.05,2.92-.07,5.85,0,8.77.13,5.16,2.23,7.15,7.45,7.17,1.59,0,3.17-.07,4.75,0,10.81.6,11.74-1.53,11.72-11.8C304.91,177.37,304.5,174.24,293.35,175ZM212.7,221.5c0-11-.37-11.35-11.19-11.35h-.37c-11.68,0-11.8.12-11.8,11.84,0,11.23.29,11.52,11.38,11.52C212.61,233.51,212.7,233.42,212.7,221.5Zm23.45-11.35c-11.44,0-11.66.21-11.66,11.62v.36c0,11.1.29,11.38,11.52,11.38,11.72,0,11.84-.13,11.84-11.79C247.85,210.37,247.63,210.15,236.15,210.15ZM283,222.05c0-1.47,0-2.93,0-4.39,0-5.65-1.81-7.49-7.34-7.51H270.9c-10.92,0-11.25.34-11.25,11.29,0,12,.07,12.07,11.92,12.07C282.71,233.51,283,233.22,283,222.05Zm23.47-11.9c-11.46,0-11.67.21-11.67,11.61v.36c0,11.11.28,11.39,11.51,11.39,11.72,0,11.85-.13,11.85-11.78C318.16,210.37,317.94,210.15,306.47,210.15Zm-23.62,58.51c1.71,0,3.42,0,5.13,0,4.68-.06,6.67-2,6.74-6.63,0-1.83,0-3.66,0-5.49,0-10.89-.35-11.24-11.3-11.24-12,0-12.06.08-12.06,12C271.36,268.38,271.65,268.66,282.85,268.66Z"/><polyline class="cls-1" points="58.76 116.34 58.75 116.34 53.76 116.39 53.63 116.39 52.67 116.4"/></svg>