<svg xmlns="http://www.w3.org/2000/svg" viewBox="0 0 378.29 250.87"><defs><style>.cls-1{fill:#c21f50;}.cls-2{fill:#fff;}.cls-3{fill:#e4edf5;}.cls-4{fill:#dee4f3;}.cls-5{fill:#bec2cc;}.cls-6{fill:#2b3443;}</style></defs><g id="Layer_2" data-name="Layer 2"><g id="Layer_1-2" data-name="Layer 1"><path class="cls-1" d="M376.44,200.34c-7.62,35.4-35.52,74.86-45.48,14.83,55.23-39.94,11.15-142.91,1-195.39C352.45,34,363,102.58,370.89,129c-4.38,10,.8,20.15,5.43,28.73C372.48,171.94,370.72,186.15,376.44,200.34Z"/><path class="cls-1" d="M117,163c-52.92-1-37.88,112.71-85,82.91,9.37-3.8,9.47-13.07,12.13-20.78,13-38.77,28.06-78.25,51.69-111.77.78.69,2.33,1.64,2.21,2C90.68,136.71,99.39,151.61,117,163Z"/><path class="cls-1" d="M342.73,246c-42.42,29.22-29.92-86.19-83.89-83.28,22.25-8.7,27.37-31.7,19.48-52.31C312.05,148.72,321,201.72,342.73,246Z"/><path class="cls-1" d="M131.28,166.75c.3-1,.5-2.82.93-2.88,18.65-2.48,27.73-14.54,31.94-31.57,6.58,2.89,14.78,2.31,19.52,9.13-15.93,5.52,22.42,8.65,11.74,0,4.43-6.63,11.49-7.93,18.59-9.13,2.23,19.61,16.7,27.58,32.56,34.23C208.66,165.71,169.65,167.16,131.28,166.75Z"/><path class="cls-1" d="M60.46,18.33c1-4.36-3-8.75.07-13.09C69.86,1.94,79.56.7,89.33.4c7-.24,12.43,1.92,12.53,10.29C88.45,15.46,74.24,15.74,60.46,18.33Z"/><path class="cls-1" d="M319.41,8.91c-3.23,2.47-1.88,6.29-2.78,9.44l-40.45-5.17C272.55-8.63,309.65,1.55,319.41,8.91Z"/><path class="cls-1" d="M276.18,13.18C259.74,13,186.79,3.94,240,6.06,250.18,9,273.52,3.05,276.18,13.18Z"/><path class="cls-1" d="M60.46,18.33c-6.31,1.78-12.3,6.33-19,4.51,4.46-7.93,7.62-17.25,19.05-17.6C57.5,9.58,61.48,14,60.46,18.33Z"/><path class="cls-1" d="M376.44,200.34c-5.72-14.19-4-28.4-.12-42.61A119.63,119.63,0,0,1,376.44,200.34Z"/><path class="cls-1" d="M331.91,19.78c-3,4.62-10.51-1.29-15.28-1.43C315.77,2.72,330.66,8.3,331.91,19.78Z"/><path class="cls-1" d="M160.05,6.73C149.5,11.39,138.36,8.35,127.5,9,138,3.66,148.9,2.4,160.05,6.73Z"/><path class="cls-1" d="M214.48,7.16q-26.34,0-52.65,0C162.88,2.91,214,2.83,214.48,7.16Z"/><path class="cls-1" d="M373.18,152.36c-2.16-7.65-6.44-15.09-2.29-23.36C373.66,136.59,377.81,144.05,373.18,152.36Z"/><path class="cls-1" d="M3.36,158.52q-.1,19.95-.17,39.92A62.42,62.42,0,0,1,3.36,158.52Z"/><path class="cls-1" d="M219.32,4.74c1.39,5.32-5.54,5.11-5.22,0Z"/><path class="cls-1" d="M245.66,6.3,240,6.07Z"/><path class="cls-1" d="M162.59,4.71c-.38,1.81-.73,2.85-2.75,2.14C160.75,6.12,161.69,5.43,162.59,4.71Z"/><path class="cls-1" d="M229.54,5.32l-3.28-.78Z"/><path class="cls-1" d="M256.85,77.62c-20.57,28-73.79,8.4-105.34,14.78C133.07,94.22,119.18,81,119.82,63.71c6.52-.61,5,5.13,5.91,8.21,5.69,27.52,82.17,10.44,106.44,14.76,8.9-.07,16-3.39,18.53-13.12C252.71,65.67,257.92,73.11,256.85,77.62Z"/><path class="cls-1" d="M279.69,35c-.95,2.9,1.19,8.83-5.69,7.93-7.4-1-3.73-6.11-3.91-9.75C271.6,20.38,285.87,24.3,279.69,35Z"/><path class="cls-1" d="M108.17,39.87c-15,16.86-14.89-32.51-.81-8.68C107.62,34.08,107.88,37,108.17,39.87Z"/><path class="cls-1" d="M267.4,101.82c-23.55-15.45-53.92.78-53.4,30.5-7.09,1.21-14.16,2.5-18.6,9.14-11.89,1.86-19.82-7.31-31.24-9.16-2.47-29.37-22.78-39-43.11-35.61-5.55.9-9.11,7.69-15.66,4.82,6.25-7.75,13.39-14.78,15.19-25.36,7.79,9.87,15.73,17.78,30.93,16.25,31.66-6.4,84.62,13.26,105.34-14.78a39.56,39.56,0,0,0,14.56,21.51C271.72,102.46,271.72,104.66,267.4,101.82Z"/><path class="cls-2" d="M356.87,152.54c-4.15-44.51-7.38-89.16-26.57-130.6-17.58-5.32-36-6.09-54.12-8.76A982.26,982.26,0,0,0,159.84,6.85s.07,0,.09-.07C149.4,11.38,138.32,8.34,127.5,9c-7-2.3-11.15,5-17.41,5.26C95,7.65,77,18.31,60.46,18.33,29,21.65,28,56.86,18.75,82.34,7.32,117.83-17.95,235.15,32.06,245.89,44.7,239.57,42.89,224,48,212.82c15.9-37.19,29.64-84.33,57.41-111.32,3.32-6.35,11.2-9.55,12.25-17.5,6.29-7.53-3-10,1.89-15.68,0-10.57,7.09-1.38,6.19,3.6,2.92,9.66,9.45,14.57,19.06,14.66,22.92-4.08,100.93,12.15,105.92-13,2-7.89,7.23-.47,6.15,4.05a39.56,39.56,0,0,0,14.56,21.51c27,32.2,43.39,76,59.55,116C353.93,200.22,359.26,178.16,356.87,152.54ZM41.6,79.8c2.85,9.92,10.77,8.52,19.69,7.45-5.27,9.42-13,14.49-19.78,21.47C2.7,69.77,55.64,10.11,96.31,32.61c-.61-9.81,8.28-9.55,11-1.42.81,3.37-.28,8,1.5,10.32L87.41,59.44c-1-5.17,3.82-14.82-7.35-17.36C85.38,32,66.93,31.63,71.66,42c-13.55,4-6.08,14.56-7,22.7-8.19,1-18.91-6-23,7.26C31.48,66.68,31.09,84.76,41.6,79.8Zm66.47,2.82c-3.88,11.51-18.68-.44-21.3,5.27-2,6.74,6,16-4.79,20.33-5.65,2.25-12.48,2.49-16.4-2.47C58.51,96.22,69.24,75.93,82,83.19,76.81,59.47,118.12,55.6,108.07,82.62ZM240,83.74c-6.53,3.51-79.91,0-79.91,0l42.71-70.56s61.56-2.09,61.54,5.15S246.48,80.2,240,83.74Zm64.76-42.23c14.62-1.66,14.17,22,.93,21.54C291.78,64.5,290.6,40.92,304.72,41.51Zm-34.63-8.3c1.24-2.12,1-5.36,2.91-7.15,7.06-3.34,10.47,3.72,6.69,9-.95,2.9,1.19,8.83-5.69,7.93C266.6,42,270.27,36.85,270.09,33.21Zm9.46,54.35c-14.06-.57-11.95-23.75,2.07-21.12C296.23,66.83,292.87,89.81,279.55,87.56Zm35.87,15.89c-.81,21-34.9,5-20.76-9.54C301.34,85.41,317.81,94.83,315.42,103.45Zm12.72-14.59c-7.26.41-10.87-4.79-9.85-16C330.65,48.63,360,87.87,328.14,88.86Z"/><path class="cls-3" d="M121.72,76.19a4.36,4.36,0,0,1-2.19-7.87C122.59,70.31,120.51,73.7,121.72,76.19Z"/><path class="cls-4" d="M88.76,47l.74.42L88.76,47Z"/><path class="cls-4" d="M67.53,101.58a17.13,17.13,0,0,0-.57,2.16C66.84,102.83,66.26,101.89,67.53,101.58Z"/><path class="cls-3" d="M119.4,80.18c-.58,1.27-1.17,2.54-1.76,3.81Z"/><path class="cls-1" d="M262.06,108.47c-3.38.47-6.38.27-7.16-4C257.57,105.32,260.6,105.47,262.06,108.47Z"/><path class="cls-1" d="M259.65,148.29c.41-2.79,1.75-4.45,4.85-3.95C263.78,146.76,261.89,147.74,259.65,148.29Z"/><path class="cls-1" d="M269.44,118c-2.54-.68-2.89-2.59-2.69-4.81C269.22,113.9,269.51,115.85,269.44,118Z"/><path class="cls-1" d="M266.72,142c-.17-2.18,0-4.18,2.64-4.85C269.45,139.29,269,141.13,266.72,142Z"/><path class="cls-1" d="M264.44,110.9,262,108.37A2.29,2.29,0,0,1,264.44,110.9Z"/><path class="cls-1" d="M266.82,113.28l-2.49-2.49A2.22,2.22,0,0,1,266.82,113.28Z"/><path class="cls-5" d="M315.4,103c-1.49,9-9.18,15-17.94,8.09,6.13.05,13.7,1.48,9.44-9.35C306.5,94.85,318.83,95.47,315.4,103Z"/><path class="cls-1" d="M329.41,87.83c-14.16.13-12.79-21.19,1.19-20.12C344,68.58,343,89,329.41,87.83Z"/><path class="cls-1" d="M315.42,103.45c.54,12.34-21.07,12.31-20.52-.19C294.35,88.51,316.53,89.19,315.42,103.45Z"/><path class="cls-2" d="M278.44,129.36c1.3,40.66-62.18,41.48-61.28.28C216.47,90.39,278.9,90.48,278.44,129.36Zm-45.39,17c22.93,17,48.2-10,30.34-30.31Z"/><path class="cls-6" d="M82,66.44c.1,0,.19-.07.29-.09s0,.24,0,.35Z"/><path class="cls-6" d="M86.79,71.16a2.09,2.09,0,0,1,.17-.28c0,.12-.07.26-.09.4Z"/><path class="cls-6" d="M82.26,66.7c-.13-.08-.32-.07-.31-.26Z"/><path class="cls-6" d="M86.87,71.28c-.1,0-.12,0-.08-.12Z"/><path class="cls-2" d="M148.74,109.16c13,4.57,11.62,15.45,10.39,25.47-2.06,23-35.9,34-50.19,14.71,10.54-9.71,22.92,11.06,36.56-4.66C160,132.64,143.73,121.23,148.74,109.16Z"/><path class="cls-1" d="M115.19,144.82c-22.44,16.59-23-60.36,26.26-43.42,6.61,1.61,9.27,7.67,4.46,13C124.35,92.82,93.72,123.44,115.19,144.82Z"/><path class="cls-1" d="M145.91,114.42l-30.85,30.16C93.74,123.22,124.56,92.91,145.91,114.42Z"/><path class="cls-1" d="M234.32,145.74c-22.44,16.59-23-60.35,26.26-43.41,6.61,1.61,9.28,7.67,4.46,13C243.48,93.75,212.85,124.36,234.32,145.74Z"/></g></g></svg>