<svg xmlns="http://www.w3.org/2000/svg" viewBox="0 0 430.06 199.76"><defs><style>.cls-1{fill:#fff;}.cls-2{fill:#bdd6f7;}.cls-3{fill:#c21f50;}.cls-4{fill:none;stroke:#c21f50;stroke-miterlimit:10;stroke-width:3px;}</style></defs><g id="Layer_2" data-name="Layer 2"><g id="Layer_1-2" data-name="Layer 1"><path class="cls-1" d="M82.68,3.47,74.14,13.68a59.23,59.23,0,0,0-6.55-5.39,49.48,49.48,0,0,0-7.35-4.35,44.47,44.47,0,0,0-8-2.89A33.68,33.68,0,0,0,44,0,42.49,42.49,0,0,0,26.9,3.47,43.62,43.62,0,0,0,12.9,13,44.81,44.81,0,0,0,3.46,27.51,46.65,46.65,0,0,0,0,45.61a49.53,49.53,0,0,0,3.46,19A40.69,40.69,0,0,0,26.9,87.91a43.54,43.54,0,0,0,6.53,2A48.07,48.07,0,0,0,44,91q2.73,0,5.91-.32A35.31,35.31,0,0,0,56,89.56a25.71,25.71,0,0,0,5.35-2.18A9.76,9.76,0,0,0,65.07,84a33.11,33.11,0,0,1-2.39,6.28,17.72,17.72,0,0,1-10.09,8.89,25.69,25.69,0,0,1-8.76,1.32l-10.4-.15v21.94l10.56.17A42.8,42.8,0,0,0,61.07,119a45.11,45.11,0,0,0,14-9.42,44.11,44.11,0,0,0,9.45-13.91,42.43,42.43,0,0,0,3.46-17V3.47ZM64.14,54.33a25.36,25.36,0,0,1-4.71,7.48,23.55,23.55,0,0,1-7,5.23A18.93,18.93,0,0,1,44,69a22.09,22.09,0,0,1-8.48-1.64,20.44,20.44,0,0,1-6.93-4.71A22.36,22.36,0,0,1,24,55.3a26.51,26.51,0,0,1-1.69-9.69,27.91,27.91,0,0,1,1.69-10,21.24,21.24,0,0,1,4.62-7.35,19.38,19.38,0,0,1,6.93-4.51A23.41,23.41,0,0,1,44,22.2a18.93,18.93,0,0,1,8.48,2,23.52,23.52,0,0,1,7,5.22,25.41,25.41,0,0,1,4.71,7.49,23,23,0,0,1,0,17.45Z"/><path class="cls-1" d="M170.89,3.47l-8.51,10.21a61.38,61.38,0,0,0-6.57-5.39,49,49,0,0,0-7.35-4.35,44.09,44.09,0,0,0-8-2.89,33.82,33.82,0,0,0-8.29-1,44.05,44.05,0,0,0-17.09,3.34,42.73,42.73,0,0,0-14,9.37,44.18,44.18,0,0,0-9.45,14.44,48.12,48.12,0,0,0-3.45,18.46,50.51,50.51,0,0,0,3.45,19.22,41.92,41.92,0,0,0,9.45,14.27,40.73,40.73,0,0,0,14,8.89A47.45,47.45,0,0,0,132.21,91a33.17,33.17,0,0,0,8.24-1,45.32,45.32,0,0,0,7.93-2.86,48.69,48.69,0,0,0,7.36-4.26,72.09,72.09,0,0,0,6.64-5.27l8.51,11.82h5.32v-86ZM152.36,54.33a25.16,25.16,0,0,1-4.71,7.48,23.42,23.42,0,0,1-7,5.23,18.86,18.86,0,0,1-8.48,2,23.51,23.51,0,0,1-8.49-1.53,19.41,19.41,0,0,1-6.91-4.5,21.08,21.08,0,0,1-4.62-7.36,27.61,27.61,0,0,1-1.69-10,27.7,27.7,0,0,1,1.69-10,21,21,0,0,1,4.62-7.35,19.3,19.3,0,0,1,6.91-4.51,23.51,23.51,0,0,1,8.49-1.53,18.86,18.86,0,0,1,8.48,2,23.39,23.39,0,0,1,7,5.22,25.21,25.21,0,0,1,4.71,7.49,23,23,0,0,1,0,17.45Z"/><path class="cls-1" d="M283,21.88a32.7,32.7,0,0,0-17.5-17.53,32.05,32.05,0,0,0-12.82-2.57,34.44,34.44,0,0,0-6,.52A26.46,26.46,0,0,0,240.72,4a25.73,25.73,0,0,0-5.42,3.13,22.36,22.36,0,0,0-4.59,4.67A23.76,23.76,0,0,0,220.62,4a32.09,32.09,0,0,0-11.78-2.25,31.49,31.49,0,0,0-11.46,2.13,35.45,35.45,0,0,0-10.1,6l-5.95-6.6H176V89.43h22V34.74a10.68,10.68,0,0,1,.85-4.25A11,11,0,0,1,201.15,27a10.61,10.61,0,0,1,3.47-2.37,10.47,10.47,0,0,1,4.22-.85,10.77,10.77,0,0,1,4.26.85,11,11,0,0,1,6.76,10.16V89.43h22V34.74a10.84,10.84,0,0,1,.83-4.25A11.26,11.26,0,0,1,245,27a10.6,10.6,0,0,1,7.68-3.22,10.85,10.85,0,0,1,4.27.85,11,11,0,0,1,5.91,5.91,10.85,10.85,0,0,1,.84,4.25V89.43h21.88V34.74A32.36,32.36,0,0,0,283,21.88Z"/><path class="cls-1" d="M352.62,61.09l-4.77-4.79a20.87,20.87,0,0,1-3.34,5.26,20.55,20.55,0,0,1-4.66,4,23,23,0,0,1-5.58,2.54,22,22,0,0,1-6.2.88c-.86,0-1.71,0-2.57-.12a13.12,13.12,0,0,1-2.58-.52l29.54-35.6,11.64-14c-.46-.67-1-1.32-1.45-1.95a43.5,43.5,0,0,0-3.57-4c-.66-.66-1.35-1.29-2.06-1.91A44.46,44.46,0,0,0,348.37,5a43.56,43.56,0,0,0-9.77-3.7A43.13,43.13,0,0,0,328.07,0,44.63,44.63,0,0,0,311,3.3,42.2,42.2,0,0,0,287.54,27a48.64,48.64,0,0,0-3.46,18.66,47.08,47.08,0,0,0,3.46,18.29A44,44,0,0,0,297,78.26,43.37,43.37,0,0,0,328.07,91a44.23,44.23,0,0,0,10.5-1.24,42.91,42.91,0,0,0,13.83-6.1,46.08,46.08,0,0,0,4.5-3.43A42.89,42.89,0,0,0,362.81,74c.39-.49.77-1,1.12-1.52l-4.88-4.9ZM308.6,57a10.86,10.86,0,0,1-1-2.57,30.77,30.77,0,0,1-.69-3,28.35,28.35,0,0,1-.41-3.1c-.07-1-.12-1.93-.12-2.73a26.49,26.49,0,0,1,1.69-9.7,22.28,22.28,0,0,1,4.63-7.35,20.07,20.07,0,0,1,6.92-4.71,22.06,22.06,0,0,1,8.48-1.65c1.07,0,2.1.06,3.1.16a12.57,12.57,0,0,1,3,.73Z"/><path class="cls-1" d="M379.74,25.34h50.32V3.47H379.74a28.69,28.69,0,0,0-3.49.21,26,26,0,0,0-7.2,1.91,27.46,27.46,0,0,0-8.69,5.84c-.44.44-.87.9-1.28,1.38a26.3,26.3,0,0,0-2.87,4,29.49,29.49,0,0,0-1.68,3.32,25.93,25.93,0,0,0-1.91,7.21,26.58,26.58,0,0,0-.22,3.49c0,.66,0,1.31.06,2s.1,1,.16,1.53a26,26,0,0,0,1.91,7.2,27.47,27.47,0,0,0,14.52,14.64,5.89,5.89,0,0,0,.58.24c.3.13.59.24.89.35s.71.25,1.06.35.67.21,1,.29l.29.08c.44.12.89.23,1.35.31s.89.18,1.34.24c.26,0,.54.08.8.11l.64.07c.91.08,1.82.13,2.74.13h22.84a9.28,9.28,0,0,1,3.87.73c1.07.47,1.6,1.5,1.6,3.05a5.48,5.48,0,0,1-5.47,5.47H352.4V89.43h50.18a27,27,0,0,0,19.31-8,29.43,29.43,0,0,0,2.21-2.53,29,29,0,0,0,3.66-6.16,26.35,26.35,0,0,0,2.17-10.66v0a24.58,24.58,0,0,0-2.17-10.33,25.21,25.21,0,0,0-3.66-5.8,23.05,23.05,0,0,0-2.21-2.32,26.7,26.7,0,0,0-8.69-5.27,29.68,29.68,0,0,0-10.62-1.9H379.74a5.2,5.2,0,0,1-3.86-1.64,5.5,5.5,0,0,1-1.6-4,5.48,5.48,0,0,1,5.46-5.47Z"/><path class="cls-2" d="M141,146.17l2.09,2.78q-10,8.3-14.91,11-6.75,3.74-10.64,3.74a4.25,4.25,0,0,1-2.92-1,2.93,2.93,0,0,1-1.13-2.24,17.15,17.15,0,0,1,.83-4.1l2.62-9q-9,9.47-15,12.84T91.2,163.62a8.2,8.2,0,0,1-6.67-3.42q-2.7-3.4-2.7-10,0-10.41,7.31-24t16.26-20q9-6.5,16.38-6.49a35.63,35.63,0,0,1,4.94.51q3.53-14.28,6.75-20.82a38.39,38.39,0,0,1,8.32-11.31,36.86,36.86,0,0,1,11.65-7.36,33.42,33.42,0,0,1,12.25-2.59,7.11,7.11,0,0,1,4.8,1.54,4.88,4.88,0,0,1,1.8,3.88,4.63,4.63,0,0,1-1.66,3.7,6.61,6.61,0,0,1-4.5,1.43,59.21,59.21,0,0,1-7-.73,58.81,58.81,0,0,0-7-.73,7.19,7.19,0,0,0-4.61,1.57q-2,1.57-3.8,6.77-1.19,3.3-5.45,21l-10.6,44.29q-1.87,7.85-1.87,10.42c0,1.86.73,2.78,2.18,2.78a6.85,6.85,0,0,0,3.14-1A104.94,104.94,0,0,0,141,146.17Zm-15.89-37.9a45.51,45.51,0,0,0-8.47-1.33,15.58,15.58,0,0,0-9.82,3.86q-4.8,3.86-9.25,14.94t-4.46,19.31a9,9,0,0,0,2.06,6.14,6.06,6.06,0,0,0,4.68,2.38q3.15,0,7.2-2.71a31.12,31.12,0,0,0,9.14-9.84q2-3.68,5.47-18Z"/><path class="cls-2" d="M153.25,116.69,150,114.2q7.49-8.06,13.67-11.47t10.51-3.41a5.69,5.69,0,0,1,3.67,1,3.37,3.37,0,0,1,1.27,2.78q0,2.13-4.86,18-7.92,26-7.92,31.38a2.79,2.79,0,0,0,.53,1.72,1.44,1.44,0,0,0,1.12.69q2.4,0,12.29-9.09l2.92,2.79q-10.26,9.45-15,12.1c-3.15,1.76-5.73,2.64-7.72,2.64a5.45,5.45,0,0,1-4.16-1.62,6.18,6.18,0,0,1-1.54-4.47q0-9.17,11.24-44.79a10.33,10.33,0,0,0,.53-3q0-1.47-1.35-1.47a6.64,6.64,0,0,0-3.41,1.18Q159.84,110.39,153.25,116.69Z"/><path class="cls-2" d="M238.76,98.44l5-1L238.09,116q-3.37,11.07-6.37,25.51a66.55,66.55,0,0,0-1.65,10.12c0,1.52.62,2.28,1.87,2.28a9.21,9.21,0,0,0,3.83-1.54,49,49,0,0,0,8.91-6.75l2.4,2.86q-8.54,7.62-10.94,9.24a41.23,41.23,0,0,1-9.14,4.76,16.2,16.2,0,0,1-5.55,1,4.21,4.21,0,0,1-2.92-.88,3.29,3.29,0,0,1-1-2.57,10.71,10.71,0,0,1,.6-3l3-10a63.26,63.26,0,0,1-15.36,13q-5.47,3.38-10,3.38a7.93,7.93,0,0,1-6.67-3q-3.15-4-3.15-10.56,0-7.77,4.23-17.3a63.73,63.73,0,0,1,11.36-17.3,48.23,48.23,0,0,1,15-11.44q6.08-2.79,15.59-2.78a40.25,40.25,0,0,1,4.87.29Zm-9.29,11.22a35.79,35.79,0,0,0-6.82-.81,19.56,19.56,0,0,0-11.77,3.63q-5,3.63-9.33,13a44.93,44.93,0,0,0-4.31,18.8c0,3.33.58,5.72,1.73,7.19a5.44,5.44,0,0,0,4.49,2.2q5.17,0,11.1-5.46t8.69-15.73Z"/><path class="cls-2" d="M266,161.34H254.8l5.25-19.72q3.82-14.52,6.67-27.56a28.14,28.14,0,0,0,.67-4c0-1.17-.55-1.76-1.65-1.76a7.48,7.48,0,0,0-3.44,1.51,70.37,70.37,0,0,0-8.4,7.44l-2.32-2.57a57,57,0,0,1,14.34-11.33q7.15-3.77,11-3.77a3.35,3.35,0,0,1,2.13.62,1.92,1.92,0,0,1,.79,1.58,33.67,33.67,0,0,1-1,5.08L275.58,120a94.51,94.51,0,0,1,17.12-20q4.57-4,7.66-4a5.23,5.23,0,0,1,3.75,1.43,4.54,4.54,0,0,1,0,6.71q-1.45,1.4-7.3,3.3a32.26,32.26,0,0,0-9,4.4,41.9,41.9,0,0,0-7.64,7.85,42,42,0,0,0-5.81,9.2q-1.65,3.92-5,18.21Z"/><path class="cls-2" d="M297.89,114.64l-2.39-3.44,5.54-3.67a102.4,102.4,0,0,1,11.39-7,8.15,8.15,0,0,1,3.45-.88,4,4,0,0,1,3,1.75q6.58,8.15,11.09,22a86.18,86.18,0,0,1,4.5,26.77q0,1.69-.15,5.13Q347,132.48,347,119.05a29.41,29.41,0,0,0-1.27-7.41,33.49,33.49,0,0,1-1.35-7.33,4.76,4.76,0,0,1,1.39-3.52,4.7,4.7,0,0,1,3.48-1.4,5.21,5.21,0,0,1,4.24,2,8.76,8.76,0,0,1,1.61,5.65q0,9.45-4.42,23.57a150.22,150.22,0,0,1-13.91,30.35q-9.48,16.25-17.31,24.12T304.3,196.35a32.82,32.82,0,0,1-13.83,3.41c-3.29,0-5.78-.6-7.45-1.8a5.16,5.16,0,0,1-2.51-4.28,4.72,4.72,0,0,1,1.95-3.78,8.09,8.09,0,0,1,5.24-1.58,35,35,0,0,1,7,1,37.38,37.38,0,0,0,6.45,1c3,0,6.27-1.24,9.66-3.73a39.66,39.66,0,0,0,11.06-12.23A28.59,28.59,0,0,0,325.92,160a120.82,120.82,0,0,0-3-24.47q-3-14.28-8.58-21.83c-1.85-2.58-3.82-3.88-5.92-3.88Q304.72,109.8,297.89,114.64Z"/><path class="cls-3" d="M136.06,145.58l2.1,2.79q-10,8.28-14.91,11-6.75,3.74-10.65,3.74a4.27,4.27,0,0,1-2.92-1,2.93,2.93,0,0,1-1.12-2.24,17.14,17.14,0,0,1,.82-4.11l2.63-9q-9,9.47-15,12.84T86.22,163a8.23,8.23,0,0,1-6.67-3.41q-2.68-3.41-2.69-10,0-10.42,7.3-24t16.27-20q9-6.5,16.37-6.5a34.43,34.43,0,0,1,5,.52q3.52-14.28,6.74-20.83a38.65,38.65,0,0,1,8.32-11.3,36.73,36.73,0,0,1,11.66-7.36,33.41,33.41,0,0,1,12.25-2.6,7.17,7.17,0,0,1,4.8,1.54A4.92,4.92,0,0,1,167.31,63a4.67,4.67,0,0,1-1.65,3.7,6.67,6.67,0,0,1-4.51,1.43,58.91,58.91,0,0,1-7-.73,59.94,59.94,0,0,0-7-.74,7.25,7.25,0,0,0-4.62,1.58c-1.33,1-2.59,3.3-3.79,6.77q-1.2,3.3-5.45,21l-10.6,44.29q-1.87,7.84-1.87,10.41c0,1.86.72,2.79,2.17,2.79a6.88,6.88,0,0,0,3.15-.95A102.75,102.75,0,0,0,136.06,145.58Zm-15.89-37.9a46.05,46.05,0,0,0-8.46-1.32,15.56,15.56,0,0,0-9.82,3.86q-4.8,3.86-9.26,14.94t-4.46,19.31a9.05,9.05,0,0,0,2.06,6.13A6.11,6.11,0,0,0,94.92,153c2.1,0,4.49-.91,7.19-2.72a30.83,30.83,0,0,0,9.15-9.84q2-3.66,5.47-18Z"/><path class="cls-3" d="M148.28,116.11l-3.3-2.49q7.49-8.07,13.66-11.47t10.52-3.41a5.75,5.75,0,0,1,3.67,1,3.43,3.43,0,0,1,1.27,2.79q0,2.13-4.86,18-7.92,26-7.92,31.38a2.8,2.8,0,0,0,.52,1.73,1.46,1.46,0,0,0,1.13.69q2.4,0,12.29-9.09l2.92,2.79q-10.26,9.45-15,12.09t-7.72,2.64a5.5,5.5,0,0,1-4.16-1.61,6.23,6.23,0,0,1-1.53-4.47q0-9.16,11.24-44.8a10.17,10.17,0,0,0,.52-3q0-1.47-1.35-1.47a6.74,6.74,0,0,0-3.41,1.17Q154.88,109.82,148.28,116.11Z"/><path class="cls-3" d="M233.79,97.86l4.94-1-5.62,18.55q-3.36,11.07-6.37,25.51A67.19,67.19,0,0,0,225.1,151c0,1.52.62,2.27,1.87,2.27a9,9,0,0,0,3.82-1.54,48.54,48.54,0,0,0,8.92-6.74l2.4,2.86q-8.55,7.62-10.94,9.23a41.14,41.14,0,0,1-9.15,4.77,16.38,16.38,0,0,1-5.54,1,4.29,4.29,0,0,1-2.93-.88,3.28,3.28,0,0,1-1-2.57,10.83,10.83,0,0,1,.6-3l3-10a63.15,63.15,0,0,1-15.37,13q-5.46,3.38-10,3.37a7.93,7.93,0,0,1-6.67-3q-3.15-4-3.15-10.56,0-7.77,4.24-17.3a63.54,63.54,0,0,1,11.35-17.3,48,48,0,0,1,15-11.44q6.08-2.79,15.59-2.79a40.41,40.41,0,0,1,4.87.3Zm-9.29,11.21a36.59,36.59,0,0,0-6.82-.8,19.56,19.56,0,0,0-11.77,3.63q-5,3.63-9.33,13a44.93,44.93,0,0,0-4.31,18.8c0,3.33.57,5.72,1.72,7.19a5.47,5.47,0,0,0,4.5,2.2q5.17,0,11.09-5.47t8.7-15.72Z"/><path class="cls-3" d="M261,160.76H249.83L255.07,141q3.82-14.52,6.67-27.57a28.75,28.75,0,0,0,.68-4c0-1.17-.55-1.76-1.65-1.76a7.61,7.61,0,0,0-3.45,1.5,71.68,71.68,0,0,0-8.39,7.44l-2.33-2.56A57.23,57.23,0,0,1,261,102.73q7.16-3.78,11-3.77a3.29,3.29,0,0,1,2.13.62,1.91,1.91,0,0,1,.79,1.58,33.14,33.14,0,0,1-1,5.08l-3.26,13.19a94.55,94.55,0,0,1,17.12-20q4.59-4,7.66-4a5.22,5.22,0,0,1,3.76,1.43,4.53,4.53,0,0,1,0,6.7q-1.47,1.4-7.3,3.3a32.33,32.33,0,0,0-9,4.41,42.11,42.11,0,0,0-7.63,7.84,42.23,42.23,0,0,0-5.81,9.2q-1.67,3.93-5,18.22Z"/><path class="cls-3" d="M292.92,114.06l-2.4-3.45,5.55-3.66a103.63,103.63,0,0,1,11.39-7,8.3,8.3,0,0,1,3.45-.88,4,4,0,0,1,3,1.76Q320.5,109,325,122.8a86.51,86.51,0,0,1,4.49,26.78q0,1.68-.15,5.13Q342,131.89,342,118.47a29.5,29.5,0,0,0-1.28-7.41,33.89,33.89,0,0,1-1.34-7.34,4.81,4.81,0,0,1,1.38-3.52,4.73,4.73,0,0,1,3.49-1.39,5.19,5.19,0,0,1,4.23,2,8.69,8.69,0,0,1,1.61,5.64q0,9.46-4.42,23.57a150.2,150.2,0,0,1-13.9,30.36q-9.48,16.23-17.31,24.12t-15.14,11.29a32.82,32.82,0,0,1-13.83,3.41c-3.3,0-5.78-.6-7.46-1.8a5.21,5.21,0,0,1-2.51-4.29,4.72,4.72,0,0,1,2-3.77,8.06,8.06,0,0,1,5.25-1.58,35.59,35.59,0,0,1,7,.95,36.64,36.64,0,0,0,6.44,1q4.58,0,9.67-3.74a39.4,39.4,0,0,0,11.05-12.23A28.47,28.47,0,0,0,321,159.4a120.13,120.13,0,0,0-3-24.47q-3-14.28-8.58-21.83-2.77-3.88-5.92-3.88Q299.73,109.22,292.92,114.06Z"/><line class="cls-4" x1="178.18" y1="14.6" x2="178.18" y2="76.73"/></g></g></svg>